<svg width="161" height="48" viewBox="0 0 161 48" fill="none" xmlns="http://www.w3.org/2000/svg">
<rect width="160.148" height="48" rx="5" fill="black"/>
<path d="M33.7448 25.0175C33.7606 23.791 34.0864 22.5884 34.6919 21.5216C35.2974 20.4548 36.1628 19.5585 37.2078 18.916C36.544 17.968 35.6682 17.1877 34.6501 16.6373C33.632 16.0869 32.4995 15.7815 31.3427 15.7453C28.8751 15.4863 26.4828 17.2219 25.2253 17.2219C23.9435 17.2219 22.0074 15.771 19.9226 15.8139C18.5741 15.8575 17.2598 16.2496 16.1079 16.9521C14.956 17.6546 14.0057 18.6436 13.3496 19.8225C10.5076 24.7431 12.6275 31.9746 15.3499 35.952C16.712 37.8996 18.3039 40.0752 20.3868 39.998C22.4251 39.9135 23.1864 38.6983 25.6468 38.6983C28.0844 38.6983 28.7986 39.998 30.9238 39.949C33.111 39.9135 34.489 37.9927 35.8033 36.0266C36.782 34.6389 37.5351 33.1051 38.0347 31.4822C36.764 30.9447 35.6796 30.0451 34.9167 28.8955C34.1539 27.7459 33.7463 26.3972 33.7448 25.0175Z" fill="white"/>
<path d="M29.7307 13.1295C30.9232 11.6979 31.5108 9.8578 31.3685 8C29.5465 8.19136 27.8636 9.06213 26.6549 10.4388C26.064 11.1114 25.6114 11.8938 25.323 12.7413C25.0346 13.5889 24.9161 14.485 24.9742 15.3784C25.8855 15.3878 26.7871 15.1903 27.611 14.8007C28.4349 14.4112 29.1596 13.8398 29.7307 13.1295Z" fill="white"/>
<path d="M60.3282 31.8876H54.1411L52.6553 36.1745H50.0347L55.895 20.3139H58.6178L64.4781 36.1745H61.8128L60.3282 31.8876ZM54.7819 29.9094H59.6862L57.2686 22.9519H57.2009L54.7819 29.9094Z" fill="white"/>
<path d="M77.1344 30.3933C77.1344 33.9867 75.1661 36.2955 72.1957 36.2955C71.4432 36.3339 70.6949 36.1646 70.0364 35.8068C69.3779 35.449 68.8358 34.9172 68.4722 34.2723H68.416V39.9999H65.9868V24.6108H68.3381V26.5341H68.3828C68.7631 25.8924 69.3144 25.3634 69.9779 25.0034C70.6415 24.6434 71.3925 24.4659 72.151 24.4898C75.1545 24.4898 77.1344 26.8098 77.1344 30.3933ZM74.6376 30.3933C74.6376 28.0521 73.3994 26.5129 71.5102 26.5129C69.6542 26.5129 68.4058 28.0845 68.4058 30.3933C68.4058 32.7232 69.6542 34.2836 71.5102 34.2836C73.3994 34.2836 74.6376 32.7557 74.6376 30.3933Z" fill="white"/>
<path d="M90.1597 30.3934C90.1597 33.9868 88.1913 36.2956 85.221 36.2956C84.4685 36.334 83.7202 36.1647 83.0617 35.8069C82.4031 35.4491 81.861 34.9173 81.4974 34.2724H81.4412V40H79.0121V24.6109H81.3634V26.5342H81.408C81.7884 25.8925 82.3396 25.3634 83.0031 25.0035C83.6667 24.6435 84.4177 24.466 85.1762 24.4899C88.1798 24.4899 90.1597 26.8099 90.1597 30.3934ZM87.6629 30.3934C87.6629 28.0522 86.4247 26.513 84.5355 26.513C82.6795 26.513 81.4311 28.0846 81.4311 30.3934C81.4311 32.7233 82.6795 34.2837 84.5355 34.2837C86.4247 34.2837 87.6629 32.7557 87.6629 30.3934H87.6629Z" fill="white"/>
<path d="M98.7684 31.7554C98.9484 33.3283 100.512 34.361 102.649 34.361C104.696 34.361 106.169 33.3282 106.169 31.91C106.169 30.6789 105.281 29.9418 103.177 29.4366L101.074 28.9414C98.0931 28.238 96.7094 26.8759 96.7094 24.6657C96.7094 21.9291 99.1501 20.0495 102.616 20.0495C106.046 20.0495 108.397 21.9291 108.476 24.6657H106.024C105.877 23.0829 104.538 22.1275 102.581 22.1275C100.624 22.1275 99.2853 23.0941 99.2853 24.5011C99.2853 25.6224 100.141 26.2822 102.233 26.7873L104.021 27.2164C107.351 27.986 108.735 29.2932 108.735 31.6131C108.735 34.5804 106.316 36.4389 102.469 36.4389C98.8692 36.4389 96.4387 34.6241 96.2817 31.7553L98.7684 31.7554Z" fill="white"/>
<path d="M113.978 21.8743V24.6109H116.228V26.4906H113.978V32.8655C113.978 33.8558 114.428 34.3173 115.417 34.3173C115.685 34.3128 115.951 34.2945 116.217 34.2624V36.1309C115.772 36.2121 115.32 36.2489 114.867 36.2406C112.471 36.2406 111.537 35.3613 111.537 33.1186V26.4906H109.816V24.6109H111.537V21.8743H113.978Z" fill="white"/>
<path d="M117.531 30.3933C117.531 26.755 119.724 24.4687 123.144 24.4687C126.575 24.4687 128.758 26.7549 128.758 30.3933C128.758 34.0417 126.587 36.318 123.144 36.318C119.703 36.318 117.531 34.0417 117.531 30.3933ZM126.283 30.3933C126.283 27.8975 125.112 26.4244 123.144 26.4244C121.176 26.4244 120.006 27.9087 120.006 30.3933C120.006 32.8991 121.176 34.361 123.144 34.361C125.112 34.361 126.283 32.8991 126.283 30.3933H126.283Z" fill="white"/>
<path d="M130.761 24.6109H133.078V26.5791H133.134C133.291 25.9644 133.659 25.4211 134.178 25.0407C134.696 24.6602 135.333 24.4657 135.98 24.4899C136.26 24.4889 136.54 24.5186 136.813 24.5784V26.7986C136.459 26.6931 136.091 26.6446 135.721 26.6552C135.368 26.6412 135.017 26.702 134.69 26.8334C134.363 26.9648 134.07 27.1637 133.829 27.4165C133.589 27.6692 133.407 27.9698 133.297 28.2977C133.187 28.6255 133.15 28.9728 133.19 29.3157V36.1745H130.761L130.761 24.6109Z" fill="white"/>
<path d="M148.013 32.7782C147.686 34.8774 145.594 36.318 142.917 36.318C139.474 36.318 137.337 34.0641 137.337 30.4482C137.337 26.8211 139.486 24.4687 142.815 24.4687C146.089 24.4687 148.148 26.6664 148.148 30.1726V30.9858H139.789V31.1292C139.751 31.5548 139.805 31.9835 139.949 32.3869C140.093 32.7903 140.324 33.1592 140.625 33.469C140.926 33.7788 141.291 34.0224 141.696 34.1837C142.101 34.345 142.536 34.4203 142.973 34.4046C143.547 34.4572 144.123 34.3273 144.615 34.0342C145.108 33.7412 145.49 33.3006 145.706 32.7781L148.013 32.7782ZM139.801 29.3269H145.717C145.739 28.9442 145.68 28.5613 145.543 28.2021C145.406 27.843 145.195 27.5153 144.922 27.2397C144.65 26.9641 144.322 26.7466 143.959 26.6007C143.596 26.4548 143.207 26.3838 142.815 26.392C142.419 26.3897 142.027 26.464 141.661 26.6105C141.295 26.7571 140.962 26.973 140.682 27.2459C140.402 27.5187 140.18 27.8431 140.028 28.2003C139.877 28.5575 139.8 28.9404 139.801 29.3269V29.3269Z" fill="white"/>
<path d="M54.4775 8.37553C54.9868 8.33982 55.4978 8.415 55.9737 8.59564C56.4497 8.77628 56.8786 9.05789 57.2297 9.42014C57.5808 9.7824 57.8452 10.2163 58.0039 10.6905C58.1626 11.1647 58.2116 11.6674 58.1474 12.1623C58.1474 14.597 56.8007 15.9966 54.4775 15.9966H51.6603V8.37553H54.4775ZM52.8717 14.9188H54.3422C54.7061 14.94 55.0703 14.8817 55.4082 14.7481C55.7461 14.6145 56.0493 14.4089 56.2957 14.1464C56.5421 13.8838 56.7255 13.5709 56.8325 13.2304C56.9395 12.8898 56.9674 12.5303 56.9143 12.1778C56.9636 11.8268 56.9328 11.4695 56.8241 11.1315C56.7155 10.7934 56.5317 10.483 56.2859 10.2226C56.04 9.96211 55.7383 9.758 55.4023 9.62487C55.0662 9.49173 54.7042 9.43287 54.3422 9.4525H52.8717V14.9188Z" fill="white"/>
<path d="M59.5158 13.1183C59.4788 12.7404 59.5231 12.359 59.6457 11.9988C59.7684 11.6385 59.9667 11.3073 60.2281 11.0263C60.4894 10.7453 60.808 10.5208 61.1633 10.3672C61.5187 10.2136 61.903 10.1342 62.2915 10.1342C62.6801 10.1342 63.0644 10.2136 63.4197 10.3672C63.7751 10.5208 64.0936 10.7453 64.355 11.0263C64.6163 11.3073 64.8147 11.6385 64.9373 11.9988C65.06 12.359 65.1043 12.7404 65.0673 13.1183C65.105 13.4967 65.0612 13.8785 64.9389 14.2394C64.8166 14.6002 64.6183 14.9321 64.3569 15.2136C64.0955 15.4951 63.7767 15.7201 63.421 15.874C63.0653 16.028 62.6806 16.1075 62.2915 16.1075C61.9025 16.1075 61.5178 16.028 61.1621 15.874C60.8064 15.7201 60.4876 15.4951 60.2262 15.2136C59.9647 14.9321 59.7665 14.6002 59.6442 14.2394C59.5218 13.8785 59.4781 13.4967 59.5158 13.1183ZM63.8725 13.1183C63.8725 11.8717 63.2993 11.1426 62.2934 11.1426C61.2837 11.1426 60.7158 11.8717 60.7158 13.1183C60.7158 14.375 61.2838 15.0984 62.2934 15.0984C63.2993 15.0984 63.8725 14.37 63.8725 13.1183H63.8725Z" fill="white"/>
<path d="M72.4466 15.9964H71.2416L70.0251 11.7606H69.9332L68.7218 15.9964H67.5283L65.9059 10.2451H67.0841L68.1385 14.6337H68.2253L69.4354 10.2451H70.5497L71.7599 14.6337H71.8518L72.901 10.2451H74.0626L72.4466 15.9964Z" fill="white"/>
<path d="M75.4273 10.2451H76.5454V11.1588H76.6323C76.7795 10.8306 77.0279 10.5555 77.3427 10.3719C77.6576 10.1882 78.0232 10.1051 78.3887 10.1341C78.6751 10.1131 78.9627 10.1553 79.2301 10.2576C79.4975 10.3599 79.738 10.5197 79.9336 10.7251C80.1293 10.9305 80.2751 11.1763 80.3603 11.4443C80.4456 11.7123 80.468 11.9956 80.426 12.2732V15.9963H79.2644V12.5582C79.2644 11.634 78.8533 11.1744 77.9943 11.1744C77.7998 11.1655 77.6057 11.1979 77.4253 11.2692C77.2448 11.3405 77.0823 11.4491 76.9488 11.5875C76.8153 11.7259 76.714 11.8909 76.6519 12.0712C76.5898 12.2514 76.5682 12.4427 76.5888 12.6318V15.9964H75.4272L75.4273 10.2451Z" fill="white"/>
<path d="M82.2769 8.00002H83.4385V15.9964H82.2769V8.00002Z" fill="white"/>
<path d="M85.0531 13.1183C85.0162 12.7404 85.0604 12.359 85.1831 11.9987C85.3058 11.6384 85.5042 11.3072 85.7656 11.0262C86.027 10.7452 86.3456 10.5207 86.7009 10.3671C87.0563 10.2135 87.4406 10.1341 87.8292 10.1341C88.2178 10.1341 88.6021 10.2135 88.9574 10.3671C89.3128 10.5207 89.6314 10.7452 89.8928 11.0262C90.1541 11.3072 90.3525 11.6384 90.4752 11.9987C90.5979 12.359 90.6422 12.7404 90.6052 13.1183C90.6429 13.4967 90.5991 13.8786 90.4767 14.2394C90.3544 14.6003 90.1561 14.9321 89.8946 15.2136C89.6332 15.4951 89.3144 15.7201 88.9587 15.874C88.603 16.028 88.2182 16.1075 87.8292 16.1075C87.4401 16.1075 87.0554 16.028 86.6997 15.874C86.344 15.7201 86.0252 15.4951 85.7637 15.2136C85.5023 14.9321 85.304 14.6003 85.1816 14.2394C85.0592 13.8786 85.0155 13.4967 85.0531 13.1183ZM89.4098 13.1183C89.4098 11.8717 88.8366 11.1426 87.8308 11.1426C86.8211 11.1426 86.2531 11.8717 86.2531 13.1184C86.2531 14.375 86.8211 15.0984 87.8308 15.0984C88.8366 15.0984 89.4098 14.37 89.4098 13.1183H89.4098Z" fill="white"/>
<path d="M91.8281 14.3699C91.8281 13.3347 92.617 12.7379 94.0173 12.653L95.6116 12.5632V12.0668C95.6116 11.4594 95.2006 11.1164 94.4066 11.1164C93.7582 11.1164 93.3089 11.349 93.1799 11.7556H92.0553C92.1741 10.7678 93.125 10.1341 94.4602 10.1341C95.9359 10.1341 96.7681 10.8519 96.7681 12.0668V15.9964H95.6499V15.1882H95.558C95.3715 15.4781 95.1095 15.7145 94.7989 15.8731C94.4883 16.0317 94.1402 16.107 93.7901 16.0912C93.543 16.1163 93.2933 16.0905 93.057 16.0156C92.8207 15.9406 92.6031 15.8181 92.4183 15.6559C92.2334 15.4937 92.0854 15.2955 91.9838 15.074C91.8821 14.8525 91.8291 14.6127 91.8281 14.3699ZM95.6116 13.8785V13.3977L94.1743 13.4875C93.3637 13.5405 92.9961 13.8099 92.9961 14.3169C92.9961 14.8346 93.4556 15.1358 94.0875 15.1358C94.2727 15.1541 94.4597 15.1358 94.6375 15.0821C94.8153 15.0283 94.9802 14.9402 95.1224 14.8228C95.2646 14.7055 95.3811 14.5615 95.4652 14.3993C95.5493 14.237 95.5991 14.0599 95.6116 13.8785Z" fill="white"/>
<path d="M98.2948 13.1183C98.2948 11.301 99.2509 10.1497 100.738 10.1497C101.106 10.1332 101.471 10.2193 101.791 10.398C102.11 10.5766 102.371 10.8405 102.543 11.1588H102.63V8.00002H103.791V15.9964H102.678V15.0878H102.586C102.401 15.4039 102.131 15.6645 101.805 15.8413C101.48 16.0182 101.11 16.1046 100.738 16.0912C99.2407 16.0913 98.2948 14.94 98.2948 13.1183ZM99.4947 13.1183C99.4947 14.3382 100.083 15.0722 101.067 15.0722C102.046 15.0722 102.651 14.3276 102.651 13.1233C102.651 11.9247 102.04 11.1694 101.067 11.1694C100.09 11.1694 99.4947 11.9084 99.4947 13.1183H99.4947Z" fill="white"/>
<path d="M108.597 13.1183C108.56 12.7404 108.604 12.359 108.727 11.9988C108.85 11.6385 109.048 11.3073 109.31 11.0263C109.571 10.7453 109.889 10.5208 110.245 10.3672C110.6 10.2136 110.984 10.1342 111.373 10.1342C111.762 10.1342 112.146 10.2136 112.501 10.3672C112.856 10.5208 113.175 10.7453 113.436 11.0263C113.698 11.3073 113.896 11.6385 114.019 11.9988C114.141 12.359 114.186 12.7404 114.149 13.1183C114.186 13.4967 114.143 13.8785 114.02 14.2394C113.898 14.6002 113.7 14.9321 113.438 15.2136C113.177 15.4951 112.858 15.7201 112.502 15.874C112.147 16.028 111.762 16.1075 111.373 16.1075C110.984 16.1075 110.599 16.028 110.243 15.874C109.888 15.7201 109.569 15.4951 109.308 15.2136C109.046 14.9321 108.848 14.6002 108.726 14.2394C108.603 13.8785 108.56 13.4967 108.597 13.1183ZM112.954 13.1183C112.954 11.8717 112.381 11.1426 111.375 11.1426C110.365 11.1426 109.797 11.8717 109.797 13.1183C109.797 14.375 110.365 15.0984 111.375 15.0984C112.381 15.0984 112.954 14.37 112.954 13.1183Z" fill="white"/>
<path d="M115.707 10.2451H116.825V11.1588H116.912C117.06 10.8306 117.308 10.5555 117.623 10.3719C117.938 10.1882 118.303 10.1051 118.669 10.1341C118.955 10.1131 119.243 10.1553 119.51 10.2576C119.778 10.3599 120.018 10.5197 120.214 10.7251C120.409 10.9305 120.555 11.1763 120.64 11.4443C120.726 11.7123 120.748 11.9956 120.706 12.2732V15.9963H119.544V12.5582C119.544 11.634 119.133 11.1744 118.274 11.1744C118.08 11.1655 117.886 11.1979 117.705 11.2692C117.525 11.3405 117.362 11.4491 117.229 11.5875C117.095 11.7259 116.994 11.8909 116.932 12.0712C116.87 12.2514 116.848 12.4427 116.869 12.6318V15.9964H115.707V10.2451Z" fill="white"/>
<path d="M127.27 8.81326V10.2713H128.545V11.2274H127.27V14.1847C127.27 14.7872 127.524 15.051 128.102 15.051C128.25 15.0505 128.398 15.0418 128.545 15.0248V15.9702C128.336 16.0067 128.125 16.0261 127.913 16.0282C126.621 16.0282 126.107 15.5842 126.107 14.4754V11.2274H125.172V10.2713H126.107V8.81326H127.27Z" fill="white"/>
<path d="M130.132 8.00002H131.283V11.1694H131.375C131.529 10.8382 131.784 10.5616 132.106 10.3772C132.427 10.1928 132.798 10.1097 133.17 10.1391C133.454 10.124 133.739 10.1705 134.004 10.2752C134.268 10.38 134.506 10.5405 134.699 10.7453C134.893 10.9501 135.038 11.1941 135.124 11.46C135.21 11.7258 135.235 12.0069 135.197 12.2832V15.9964H134.034V12.5632C134.034 11.6446 133.596 11.1794 132.775 11.1794C132.576 11.1634 132.375 11.1902 132.187 11.2579C131.999 11.3257 131.828 11.4328 131.687 11.5717C131.546 11.7105 131.438 11.8779 131.37 12.062C131.302 12.2461 131.275 12.4425 131.293 12.6374V15.9964H130.132L130.132 8.00002Z" fill="white"/>
<path d="M141.97 14.4436C141.812 14.9692 141.47 15.4239 141.004 15.728C140.537 16.0322 139.977 16.1665 139.419 16.1075C139.032 16.1175 138.646 16.0449 138.29 15.8948C137.934 15.7447 137.615 15.5206 137.357 15.2382C137.098 14.9557 136.905 14.6216 136.792 14.2591C136.679 13.8966 136.647 13.5144 136.7 13.1389C136.649 12.7623 136.681 12.3792 136.794 12.0156C136.907 11.652 137.098 11.3164 137.356 11.0315C137.613 10.7465 137.93 10.519 138.285 10.3642C138.64 10.2094 139.025 10.1309 139.414 10.1342C141.052 10.1342 142.04 11.2275 142.04 13.0335V13.4295H137.884V13.4931C137.865 13.7042 137.893 13.9166 137.963 14.1168C138.034 14.317 138.147 14.5006 138.295 14.6557C138.442 14.8109 138.621 14.9341 138.82 15.0177C139.02 15.1012 139.234 15.1431 139.451 15.1408C139.729 15.1734 140.011 15.1245 140.26 15.0003C140.509 14.8762 140.715 14.6823 140.852 14.4435L141.97 14.4436ZM137.884 12.5901H140.857C140.871 12.3971 140.844 12.2032 140.778 12.0209C140.711 11.8386 140.606 11.672 140.47 11.5316C140.333 11.3913 140.168 11.2805 139.986 11.2062C139.803 11.1319 139.606 11.0958 139.408 11.1002C139.207 11.0977 139.008 11.1346 138.821 11.2086C138.635 11.2826 138.466 11.3923 138.324 11.5311C138.182 11.67 138.07 11.8352 137.994 12.0171C137.919 12.1989 137.881 12.3938 137.884 12.5901H137.884Z" fill="white"/>
</svg>
