<svg width="141" height="44" viewBox="0 0 141 44" fill="none" xmlns="http://www.w3.org/2000/svg">
<path fill-rule="evenodd" clip-rule="evenodd" d="M10.9296 44H14.2095V26.4H10.9296V44ZM22.9529 43.736H25.8906V32.6315L38.2562 44V26.664H35.3267V37.5788L22.9529 26.4V43.736ZM44.9626 39.4735C46.5615 40.7248 48.4807 41.448 50.5382 41.448C52.5423 41.448 53.9482 40.755 53.9482 39.2246C53.9482 37.8909 53.0516 37.3684 51.4814 36.784L48.9393 35.8971C46.5957 35.0611 44.8134 33.8401 44.8134 31.0337C44.8134 28.0321 47.5115 26.4 50.7381 26.4C52.7148 26.4 54.5163 26.8991 55.9236 27.7832V30.7601C54.4602 29.6739 52.8586 28.9259 50.8011 28.9259C49.0297 28.9259 47.7059 29.59 47.7059 30.9746C47.7059 32.2259 48.5369 32.7264 50.0002 33.2296L52.8326 34.2279C55.5773 35.1973 56.8367 36.7001 56.8367 39.1724C56.8367 42.2826 54.1125 44 50.5382 44C48.1891 44 46.1919 43.34 44.9626 42.5067V39.4735ZM64.489 44H67.7676V26.4H64.489V44ZM83.1489 41.3366C86.845 41.3366 88.8204 38.9551 88.8204 35.1959C88.8204 31.4091 86.8437 29.0359 83.1489 29.0359H79.4939V41.3366H83.1489ZM76.5096 26.4H83.2584C88.4535 26.4 91.8129 29.8375 91.8129 35.1959C91.8129 40.5584 88.4535 44 83.2584 44H76.5096V26.4ZM108.21 26.4V29.0359H100.274V33.2709H107.391V35.8765H100.273V41.3366H108.21V44H97.279V26.4H108.21ZM119.849 34.3695H123.103C125.029 34.3695 126.114 33.308 126.114 31.6759C126.114 30.0438 125.029 28.9809 123.103 28.9809H119.849V34.3695ZM119.849 36.8582V44H116.953V26.4H123.157C126.695 26.4 128.984 28.2301 128.984 31.6759C128.984 34.6225 127.713 36.3151 125.007 36.7496L131.163 44H127.869L121.909 36.8596H119.85L119.849 36.8582ZM9.78376 9.06125C11.0664 8.58963 12.0658 7.17475 12.0658 5.22913C12.0658 1.98687 9.78376 0.306625 6.13282 0.306625H0V18.4058H6.70229C10.3532 18.4058 12.6352 16.6073 12.6352 13.2179C12.6352 11.3011 11.4374 9.62088 9.78376 9.06125ZM2.88023 7.91175V2.96038H6.10544C8.13146 2.96038 9.21428 3.69737 9.21428 5.4065C9.21428 7.11562 8.13009 7.91175 6.10544 7.91175H2.88023ZM2.88023 10.4473H6.6448C8.64344 10.4473 9.72626 11.4483 9.72626 13.0996C9.72626 14.7208 8.64207 15.7534 6.64616 15.7534H2.8816V10.4459L2.88023 10.4473ZM26.0166 18.7C30.2096 18.7 33.0337 16.1645 33.0337 11.2131V0.306625H30.0672V10.8584C30.0672 14.3371 28.6408 15.9596 26.0166 15.9596C23.3923 15.9596 21.9673 14.3371 21.9673 10.8584V0.306625H19.0008V11.1829C19.0008 16.1645 21.8523 18.7 26.0166 18.7ZM40.018 17.1077C41.2446 17.9932 43.2418 18.7 45.58 18.7C49.146 18.7 51.8551 16.8713 51.8551 13.5712C51.8551 10.9478 50.6012 9.3555 47.862 8.32425L45.0392 7.26275C43.5841 6.73338 42.7572 6.20262 42.7572 4.87575C42.7572 3.40175 44.0687 2.695 45.8373 2.695C47.8907 2.695 49.4883 3.48975 50.9434 4.64062V1.485C49.5458 0.543125 47.7484 0.012375 45.7798 0.012375C42.5574 0.012375 39.8756 1.75175 39.8756 4.93488C39.8756 7.91175 41.6443 9.20837 43.9824 10.0925L46.5218 11.0358C48.0906 11.6545 48.9749 12.2155 48.9749 13.6304C48.9749 15.2515 47.5772 15.9885 45.58 15.9885C43.5266 15.9885 41.6155 15.2212 40.018 13.8958V17.1077ZM62.4548 0.306625H59.4897V18.4044H62.4548V0.306625ZM70.9175 18.3824H73.7759V6.60825L85.806 18.6629V0.279125H82.9559V11.8525L70.9175 0V18.3824ZM104.343 0.31075V3.02087H96.6411V7.37687H103.547V10.0568H96.6411V15.6709H104.343V18.4099H93.7335V0.31075H104.343ZM111.249 17.0954C112.476 17.9809 114.471 18.6876 116.811 18.6876C120.376 18.6876 123.086 16.8603 123.086 13.5589C123.086 10.9354 121.831 9.3445 119.093 8.31188L116.269 7.25175C114.814 6.721 113.987 6.19025 113.987 4.86337C113.987 3.38937 115.298 2.68263 117.067 2.68263C119.12 2.68263 120.718 3.47875 122.173 4.62825V1.474C120.775 0.53075 118.978 0 117.009 0C113.787 0 111.105 1.73937 111.105 4.9225C111.105 7.89937 112.874 9.196 115.212 10.0801L117.751 11.0234C119.32 11.6421 120.205 12.2031 120.205 13.618C120.205 15.2391 118.808 15.9761 116.81 15.9761C114.756 15.9761 112.845 15.2102 111.249 13.8834V17.0954ZM129.163 17.0954C130.389 17.9809 132.387 18.6876 134.725 18.6876C138.291 18.6876 141 16.8603 141 13.5589C141 10.9354 139.745 9.3445 137.007 8.31188L134.183 7.25175C132.729 6.721 131.901 6.19025 131.901 4.86337C131.901 3.38937 133.214 2.68263 134.981 2.68263C137.034 2.68263 138.633 3.47875 140.087 4.62825V1.474C138.691 0.53075 136.893 0 134.925 0C131.701 0 129.02 1.73937 129.02 4.9225C129.02 7.89937 130.789 9.196 133.127 10.0801L135.667 11.0234C137.235 11.6421 138.12 12.2031 138.12 13.618C138.12 15.2391 136.722 15.9761 134.725 15.9761C132.671 15.9761 130.76 15.2102 129.163 13.8834V17.0954Z" fill="#AA98FF"/>
</svg>
