<svg width="44" height="44" viewBox="0 0 44 44" fill="none" xmlns="http://www.w3.org/2000/svg">
<path d="M22.0001 3.66666C11.8984 3.66666 3.66675 11.8983 3.66675 22C3.66675 32.1017 11.8984 40.3333 22.0001 40.3333C32.1017 40.3333 40.3334 32.1017 40.3334 22C40.3334 11.8983 32.1017 3.66666 22.0001 3.66666ZM28.1601 26.2167C28.6917 26.7483 28.6917 27.6283 28.1601 28.16C27.8851 28.435 27.5367 28.5633 27.1884 28.5633C26.8401 28.5633 26.4917 28.435 26.2167 28.16L22.0001 23.9433L17.7834 28.16C17.5084 28.435 17.1601 28.5633 16.8117 28.5633C16.4634 28.5633 16.1151 28.435 15.8401 28.16C15.3084 27.6283 15.3084 26.7483 15.8401 26.2167L20.0567 22L15.8401 17.7833C15.3084 17.2517 15.3084 16.3717 15.8401 15.84C16.3717 15.3083 17.2517 15.3083 17.7834 15.84L22.0001 20.0567L26.2167 15.84C26.7484 15.3083 27.6284 15.3083 28.1601 15.84C28.6917 16.3717 28.6917 17.2517 28.1601 17.7833L23.9434 22L28.1601 26.2167Z" fill="#FFFFFE"/>
</svg>
