<svg width="218" height="125" viewBox="0 0 218 125" fill="none" xmlns="http://www.w3.org/2000/svg">
<path d="M2.37155 27.2654L3.47234 26.8517L68.0179 2.59587L69.1637 2.16531L2.37155 27.2654ZM2.37155 27.2654L2.51051 28.4331M2.37155 27.2654L2.51051 28.4331M2.51051 28.4331L4 28.2559M2.51051 28.4331L4 28.2559M4 28.2559C2.51051 28.4331 2.5106 28.4339 2.51069 28.4346L2.5109 28.4363L2.51138 28.4403L2.51264 28.4504L2.51642 28.4793C2.51953 28.5023 2.52385 28.5329 2.52959 28.5709C2.54106 28.6467 2.55823 28.7518 2.58281 28.884C2.63196 29.1483 2.7108 29.521 2.83311 29.9845C3.07766 30.9111 3.49661 32.2026 4.20084 33.7153C5.61146 36.7454 8.16247 40.6528 12.7245 44.2802L12.7259 44.2813C13.4227 44.834 14.4277 45.3037 15.5372 45.7368C16.6801 46.1829 18.0812 46.6443 19.6664 47.1399C20.6172 47.4372 21.6378 47.7478 22.7215 48.0777C25.2853 48.8582 28.2022 49.7462 31.3852 50.8183C40.4174 53.8606 51.3651 58.3154 61.2973 65.6006C68.5453 70.919 76.6269 80.0632 82.9499 87.9729C86.0976 91.9105 88.7852 95.5111 90.6856 98.127C91.6356 99.4346 92.3882 100.495 92.9026 101.228C93.1598 101.594 93.3574 101.879 93.4903 102.071C93.5567 102.167 93.607 102.24 93.6404 102.288L93.6779 102.343L93.687 102.356L93.6891 102.359L93.6896 102.36C93.6896 102.36 93.6896 102.36 93.963 102.174L93.6896 102.36L94.1216 102.993L94.8878 103.014L149.539 104.499L149.937 104.51L150.287 104.322L187.74 84.2763L189.521 83.3233L188.094 81.8941L187.032 82.9538C188.094 81.8941 188.094 81.8939 188.094 81.8936L188.092 81.8925L188.089 81.8887L188.074 81.8741L188.018 81.8179C187.968 81.7685 187.894 81.6954 187.798 81.5997C187.604 81.4082 187.318 81.1262 186.944 80.7617C186.197 80.0326 185.101 78.9735 183.702 77.6491C180.905 75.0006 176.893 71.29 172.033 67.0365C162.318 58.5357 149.181 47.8391 135.546 39.1202C128.473 34.5958 115.97 29.2228 104.376 24.4084C102.494 23.6269 100.635 22.8598 98.823 22.1121C95.0198 20.5427 91.4239 19.0588 88.26 17.7079C83.558 15.7002 79.9397 14.0392 78.0495 12.8713L78.0494 12.8713C76.407 11.8566 74.3767 9.53506 72.6672 7.28276C71.8369 6.1889 71.1213 5.1647 70.6132 4.41354C70.3594 4.03846 70.1583 3.73271 70.0213 3.52193C69.9528 3.41657 69.9004 3.33503 69.8656 3.28052L69.8267 3.21945L69.8175 3.20489L69.8155 3.20174L69.8153 3.20139L69.8152 3.20121L4 28.2559Z" fill="white" stroke="black" stroke-width="3"/>
<path d="M128.613 42.1158C116.273 34.416 85.2801 22.7452 77.7323 19.3453C72.785 17.1182 67.8377 8.70282 67.8377 8.70282L11.7749 30.483C11.7749 30.483 11.3036 36.1761 22.9554 42.1318C26.9945 44.1965 48.1268 47.7227 66.1091 60.5963C79.3083 70.0441 101.996 99.7826 101.996 99.7826L142.513 100.773L179.259 81.4684C179.259 81.4684 152.705 57.1444 128.613 42.1158ZM137.565 97.802L107.649 98.5457C107.649 98.5457 86.9247 71.8583 73.7275 62.4145C55.7433 49.5409 38.2971 43.1702 33.9165 42.1198C18.3706 38.4072 16.9568 31.9724 16.9568 31.9724L66.8952 13.1631C66.8952 13.1631 73.0216 21.825 85.5052 26.5279C95.7451 30.3827 116.74 37.9261 129.556 46.574C155.233 63.8999 171.721 80.4821 171.721 80.4821L137.565 97.802Z" fill="#6246EA"/>
<path d="M94.5191 100.072L94.519 100.072L94.5192 100.072L94.8877 103.014L149.554 104.499L150.272 101.662L150.273 101.662L150.273 101.662L150.272 101.662L150.269 101.66L150.255 101.653L150.2 101.625C150.151 101.6 150.077 101.562 149.98 101.512C149.787 101.412 149.504 101.264 149.148 101.075C148.435 100.698 147.43 100.155 146.265 99.4975C143.927 98.1785 140.976 96.4147 138.448 94.6041C137.761 94.1111 136.848 93.2085 135.822 92.0452C134.815 90.9029 133.765 89.5852 132.807 88.3266C131.851 87.0702 130.996 85.8855 130.38 85.0143C130.072 84.5791 129.824 84.223 129.654 83.9764C129.569 83.8531 129.503 83.7572 129.459 83.6926L129.409 83.6196L129.397 83.6016L129.394 83.5973L129.394 83.5964L129.394 83.5963L129.393 83.5963L128.577 82.3908L127.348 83.1705L128.151 84.4372C127.348 83.1705 127.348 83.1705 127.348 83.1706L127.347 83.1708L127.346 83.1719L127.339 83.1762L127.312 83.1933L127.207 83.26L126.803 83.5162L125.325 84.4532C124.082 85.2415 122.375 86.3235 120.52 87.4987C116.811 89.8492 112.513 92.5712 110.155 94.0598C107.961 95.4441 104.111 96.9423 100.684 98.1199C98.9959 98.7002 97.4518 99.1889 96.3296 99.5326C95.7688 99.7044 95.3143 99.8396 95.0008 99.9317C94.844 99.9778 94.7226 100.013 94.6409 100.037L94.5486 100.063L94.5258 100.07L94.5204 100.071L94.5192 100.071L94.5191 100.072Z" fill="white" stroke="black" stroke-width="3"/>
<path d="M103.297 101.629C103.297 101.629 108.74 100.803 115.151 97.4994C119.334 95.3006 123.31 92.6896 127.024 89.7014C127.024 89.7014 129.245 94.9575 132.812 97.5635C137.802 101.206 144.607 102.838 144.607 102.838L134.877 102.519C134.877 102.519 131.616 101.29 129.796 99.7866C128.102 98.3834 125.925 95.3384 125.925 95.3384C125.925 95.3384 121.481 98.1709 119.493 99.2714C115.462 101.503 113.042 102.012 113.042 102.012L103.297 101.629Z" fill="#6246EA"/>
<path d="M116.364 37.6595L110.475 34.6907C103.173 31.7198 91.3951 31.2247 78.9096 38.4032C69.1619 44.0161 60.0649 51.2729 68.3091 60.1834C77.948 70.6074 89.9088 71.3591 104.115 63.8959C121.546 54.7388 124.845 40.6303 116.364 37.6595Z" fill="#6246EA"/>
<path d="M138.147 73.6604C139.437 76.1943 138.008 79.6402 134.955 81.3562C131.902 83.0721 128.38 82.4066 127.089 79.8707C125.797 77.3349 127.228 73.889 130.283 72.175C133.337 70.4611 136.857 71.1246 138.147 73.6604Z" fill="#6246EA"/>
<path d="M64.3901 28.7931C65.1533 30.6474 63.6269 33.1291 60.9787 34.3339C58.3305 35.5386 55.5621 35.0154 54.7989 33.1631C54.0357 31.3109 55.5621 28.8272 58.2084 27.6204C60.8547 26.4136 63.625 26.9328 64.3901 28.7931Z" fill="#6246EA"/>
<path d="M16.8901 35.1978C19.9981 34.8931 25.2716 30.2785 19.752 29.4847C18.3782 29.2842 15.9761 30.3346 15.0947 31.5153C13.6542 33.4438 14.3315 33.7866 15.7453 35.1978H16.8901Z" fill="#6246EA"/>
<path d="M61.2476 14.1494C62.7109 16.0217 69.9935 21.4542 70.4266 15.3521C70.8082 9.86349 63.249 12.3091 61.2476 13.548V14.1494Z" fill="#6246EA"/>
<path d="M173.715 80.2977C170.939 77.8501 164.162 72.9708 162.84 79.991C161.333 87.9513 171.012 84.9264 174.007 82.1018L173.715 80.2977Z" fill="#6246EA"/>
<path d="M119.913 97.1365C118.993 102.665 128.892 103.579 129.371 98.64C129.525 97.0363 127.602 94.6889 126.225 94.1316C123.935 93.2035 121.699 95.2221 120.199 96.8358L119.913 97.1365Z" fill="#6246EA"/>
<path d="M124.361 24.3956C129.36 26.3955 135.398 29.7485 137.127 30.762C154.361 40.8667 168.86 51.3955 183.361 63.8955" stroke="#1E1E1E" stroke-width="2" stroke-linecap="round" stroke-linejoin="round"/>
<path d="M186.95 67.4972C189.045 68.8657 191.595 70.8341 192.326 71.4156C199.614 77.214 205.787 82.7751 212 89" stroke="#1E1E1E" stroke-width="2" stroke-linecap="round" stroke-linejoin="round"/>
<path d="M191.252 96.1039C193.347 97.4724 195.897 99.4409 196.628 100.022C203.915 105.821 210.088 111.382 216.302 117.607" stroke="#1E1E1E" stroke-width="2" stroke-linecap="round" stroke-linejoin="round"/>
<path d="M64.997 80.0325C67.0923 81.401 70.2284 84.2745 70.8725 84.9509C79.9968 94.5325 82.7835 102.308 88.9968 108.532" stroke="#1E1E1E" stroke-width="2" stroke-linecap="round" stroke-linejoin="round"/>
<path d="M93.9527 115C96.4556 117.968 99.8115 123.291 100.456 123.968" stroke="#1E1E1E" stroke-width="2" stroke-linecap="round" stroke-linejoin="round"/>
</svg>
