<svg width="153" height="35" viewBox="0 0 153 35" fill="none" xmlns="http://www.w3.org/2000/svg">
<path fill-rule="evenodd" clip-rule="evenodd" d="M24.6591 27.447L29.4932 29.2135C30.0213 29.4088 30.5892 29.4745 31.1485 29.4049C31.7078 29.3353 32.2417 29.1325 32.7047 28.814C33.1677 28.4954 33.5459 28.0704 33.8071 27.5755C34.0683 27.0805 34.2047 26.5302 34.2045 25.9716V10.5333C34.2033 9.84523 33.995 9.17316 33.6062 8.60309C33.2173 8.03302 32.6657 7.59088 32.0219 7.33322L14.3429 0.252239C13.8131 0.0399171 13.2389 -0.0402149 12.6705 0.0188799C12.1022 0.0779748 11.5572 0.274493 11.0835 0.59116C10.6097 0.907827 10.2217 1.33495 9.95354 1.835C9.68536 2.33505 9.54524 2.89273 9.54545 3.45901V7.94569L4.86462 5.84322C4.33374 5.62117 3.75484 5.53137 3.17978 5.58185C2.60471 5.63233 2.05142 5.82152 1.56942 6.13248C1.08743 6.44344 0.691772 6.86647 0.417883 7.3637C0.143994 7.86093 0.00041526 8.41683 0 8.98165V24.9628C0.000129943 25.6538 0.214547 26.3284 0.614911 26.8976C1.01527 27.4668 1.58275 27.9038 2.24235 28.1508L19.9262 34.7762C20.4539 34.9729 21.0225 35.0414 21.5832 34.9759C22.144 34.9103 22.68 34.7126 23.1455 34.3997C23.6109 34.0869 23.9918 33.6682 24.2554 33.1797C24.5191 32.6911 24.6576 32.1473 24.6591 31.5948V27.447ZM9.95016 8.25577V25.6269L12.1132 22.2036L24.2544 27.157V9.38406L22.0913 12.7964L9.95016 8.25577Z" fill="#6246EA"/>
<path d="M109.023 7.95472H114.39L116.23 18.4461H116.69L118.683 7.95472H124.817L126.81 18.4461H127.27L129.11 7.95472H134.477L131.257 23.8638H123.897L121.903 13.6304H121.597L119.603 23.8638H112.243L109.023 7.95472Z" fill="white"/>
<path d="M137.348 21.6944C135.965 20.2288 135.273 18.3005 135.273 15.9093C135.273 13.5181 135.965 11.5994 137.348 10.1531C138.731 8.68751 140.414 7.95472 142.397 7.95472C143.677 7.95472 144.885 8.36932 146.021 9.19852C146.495 9.56492 146.888 9.96987 147.198 10.4134H147.507V7.95863H152.773V23.8599H147.507V21.4051H147.198C146.908 21.8679 146.516 22.2825 146.021 22.6489C144.906 23.4589 143.698 23.8638 142.397 23.8638C140.414 23.8638 138.731 23.1407 137.348 21.6944ZM141.622 13.1324C141.003 13.7881 140.693 14.7137 140.693 15.9093C140.693 17.1049 141.003 18.0305 141.622 18.6861C142.242 19.3418 143.068 19.6696 144.1 19.6696C145.133 19.6696 145.959 19.3418 146.578 18.6861C147.198 18.0305 147.507 17.1049 147.507 15.9093C147.507 14.7137 147.198 13.7881 146.578 13.1324C145.959 12.4768 145.133 12.1489 144.1 12.1489C143.068 12.1489 142.242 12.4768 141.622 13.1324Z" fill="white"/>
<path d="M96.2955 12.0874L96.2955 8.30218L98.5051 8.30216V5.56836H103.808V8.30216L108.227 8.30218L108.227 12.0874H103.808L103.808 19.8983H108.227V23.8638H98.5051L98.5051 12.0874H96.2955Z" fill="white"/>
<path d="M80.0753 21.6944C78.6918 20.2288 78 18.3005 78 15.9093C78 13.5181 78.6918 11.5994 80.0753 10.1531C81.4587 8.68751 83.1416 7.95472 85.1239 7.95472C86.4042 7.95472 87.6121 8.36932 88.7478 9.19852C89.2228 9.56492 89.6151 9.96987 89.9248 10.4134H90.2346V7.95863H95.5V23.8599H90.2346V21.4051H89.9248C89.6357 21.8679 89.2434 22.2825 88.7478 22.6489C87.6328 23.4589 86.4248 23.8638 85.1239 23.8638C83.1416 23.8638 81.4587 23.1407 80.0753 21.6944ZM84.3496 13.1324C83.7301 13.7881 83.4204 14.7137 83.4204 15.9093C83.4204 17.1049 83.7301 18.0305 84.3496 18.6861C84.9691 19.3418 85.795 19.6696 86.8275 19.6696C87.8599 19.6696 88.6859 19.3418 89.3054 18.6861C89.9248 18.0305 90.2346 17.1049 90.2346 15.9093C90.2346 14.7137 89.9248 13.7881 89.3054 13.1324C88.6859 12.4768 87.8599 12.1489 86.8275 12.1489C85.795 12.1489 84.9691 12.4768 84.3496 13.1324Z" fill="white"/>
<path d="M59.7046 7.95472H65.0774L67.8406 19.488H68.7616L71.8318 7.95472H77.2046L71.0642 29.432H65.6914L67.38 23.8479H63.8493L59.7046 7.95472Z" fill="white"/>
<path d="M42.2046 23.8638V7.95472H47.3075V10.3196H47.6077C48.208 9.67462 48.248 9.61013 48.6883 9.24895C49.7089 8.38613 50.8996 7.95472 52.2603 7.95472C54.1014 7.95472 55.5322 8.51656 56.5528 9.64023C57.5934 10.7438 58.1137 12.1456 58.1137 14.2324V23.8638H53.0108V14.9848C53.0108 14.0819 52.7706 13.3796 52.2904 12.878C51.8101 12.3763 51.1497 12.1255 50.3092 12.1255C49.4487 12.1255 48.7283 12.4465 48.148 13.0886C47.5877 13.7107 47.3075 14.5434 47.3075 15.5868V23.8638H42.2046Z" fill="white"/>
</svg>
