<svg width="154" height="36" viewBox="0 0 154 36" fill="none" xmlns="http://www.w3.org/2000/svg">
<path fill-rule="evenodd" clip-rule="evenodd" d="M25.1591 27.947L29.9932 29.7135C30.5213 29.9088 31.0892 29.9745 31.6485 29.9049C32.2078 29.8353 32.7417 29.6325 33.2047 29.314C33.6677 28.9954 34.0459 28.5704 34.3071 28.0755C34.5683 27.5805 34.7047 27.0302 34.7045 26.4716V11.0333C34.7033 10.3452 34.495 9.67316 34.1062 9.10309C33.7173 8.53302 33.1657 8.09088 32.5219 7.83322L14.8429 0.752239C14.3131 0.539917 13.7389 0.459785 13.1705 0.51888C12.6022 0.577975 12.0572 0.774493 11.5835 1.09116C11.1097 1.40783 10.7217 1.83495 10.4535 2.335C10.1854 2.83505 10.0452 3.39273 10.0455 3.95901V8.44569L5.36462 6.34322C4.83374 6.12117 4.25484 6.03137 3.67978 6.08185C3.10471 6.13233 2.55142 6.32152 2.06942 6.63248C1.58743 6.94344 1.19177 7.36647 0.917883 7.8637C0.643994 8.36093 0.500415 8.91683 0.5 9.48165V25.4628C0.50013 26.1538 0.714547 26.8284 1.11491 27.3976C1.51527 27.9668 2.08275 28.4038 2.74235 28.6508L20.4262 35.2762C20.9539 35.4729 21.5225 35.5414 22.0832 35.4759C22.644 35.4103 23.18 35.2126 23.6455 34.8997C24.1109 34.5869 24.4918 34.1682 24.7554 33.6797C25.0191 33.1911 25.1576 32.6473 25.1591 32.0948V27.947ZM10.4502 8.75577V26.1269L12.6132 22.7036L24.7544 27.657V9.88406L22.5913 13.2964L10.4502 8.75577Z" fill="#6246EA"/>
<path d="M109.523 8.45454H114.89L116.73 18.9459H117.19L119.183 8.45454H125.317L127.31 18.9459H127.77L129.61 8.45454H134.977L131.757 24.3636H124.397L122.403 14.1302H122.097L120.103 24.3636H112.743L109.523 8.45454Z" fill="#141414"/>
<path d="M137.848 22.1942C136.465 20.7286 135.773 18.8003 135.773 16.4091C135.773 14.0179 136.465 12.0992 137.848 10.6529C139.231 9.18732 140.914 8.45454 142.897 8.45454C144.177 8.45454 145.385 8.86914 146.521 9.69834C146.995 10.0647 147.388 10.4697 147.698 10.9132H148.007V8.45845H153.273V24.3597H148.007V21.905H147.698C147.408 22.3678 147.016 22.7824 146.521 23.1488C145.406 23.9587 144.198 24.3636 142.897 24.3636C140.914 24.3636 139.231 23.6405 137.848 22.1942ZM142.122 13.6322C141.503 14.2879 141.193 15.2135 141.193 16.4091C141.193 17.6047 141.503 18.5303 142.122 19.1859C142.742 19.8416 143.568 20.1694 144.6 20.1694C145.633 20.1694 146.459 19.8416 147.078 19.1859C147.698 18.5303 148.007 17.6047 148.007 16.4091C148.007 15.2135 147.698 14.2879 147.078 13.6322C146.459 12.9766 145.633 12.6488 144.6 12.6488C143.568 12.6488 142.742 12.9766 142.122 13.6322Z" fill="#141414"/>
<path d="M96.7955 12.5873L96.7955 8.802L99.0051 8.80198V6.06818H104.308V8.80198L108.727 8.802L108.727 12.5873H104.308L104.308 20.3981H108.727V24.3636H99.0051L99.0051 12.5873H96.7955Z" fill="#141414"/>
<path d="M80.5753 22.1942C79.1918 20.7286 78.5 18.8003 78.5 16.4091C78.5 14.0179 79.1918 12.0992 80.5753 10.6529C81.9587 9.18732 83.6416 8.45454 85.6239 8.45454C86.9042 8.45454 88.1121 8.86914 89.2478 9.69834C89.7228 10.0647 90.1151 10.4697 90.4248 10.9132H90.7346V8.45845H96V24.3597H90.7346V21.905H90.4248C90.1357 22.3678 89.7434 22.7824 89.2478 23.1488C88.1328 23.9587 86.9248 24.3636 85.6239 24.3636C83.6416 24.3636 81.9587 23.6405 80.5753 22.1942ZM84.8496 13.6322C84.2301 14.2879 83.9204 15.2135 83.9204 16.4091C83.9204 17.6047 84.2301 18.5303 84.8496 19.1859C85.4691 19.8416 86.295 20.1694 87.3275 20.1694C88.3599 20.1694 89.1859 19.8416 89.8054 19.1859C90.4248 18.5303 90.7346 17.6047 90.7346 16.4091C90.7346 15.2135 90.4248 14.2879 89.8054 13.6322C89.1859 12.9766 88.3599 12.6488 87.3275 12.6488C86.295 12.6488 85.4691 12.9766 84.8496 13.6322Z" fill="#141414"/>
<path d="M60.2046 8.45454H65.5774L68.3406 19.9878H69.2616L72.3318 8.45454H77.7046L71.5642 29.9318H66.1914L67.88 24.3477H64.3493L60.2046 8.45454Z" fill="#141414"/>
<path d="M42.7046 24.3636V8.45454H47.8075V10.8194H48.1077C48.708 10.1744 48.748 10.1099 49.1883 9.74877C50.2089 8.88595 51.3996 8.45454 52.7603 8.45454C54.6014 8.45454 56.0322 9.01637 57.0528 10.14C58.0934 11.2436 58.6137 12.6454 58.6137 14.7322V24.3636H53.5108V15.4846C53.5108 14.5817 53.2706 13.8794 52.7904 13.3778C52.3101 12.8761 51.6497 12.6253 50.8092 12.6253C49.9487 12.6253 49.2283 12.9464 48.648 13.5885C48.0877 14.2105 47.8075 15.0432 47.8075 16.0866V24.3636H42.7046Z" fill="#141414"/>
</svg>
