<svg width="165" height="48" viewBox="0 0 165 48" fill="none" xmlns="http://www.w3.org/2000/svg">
<rect x="0.147949" width="164.33" height="48" rx="5" fill="black"/>
<path d="M25.5166 23.2822L12.27 37.3412C12.2713 37.3437 12.2713 37.3475 12.2725 37.3499C12.6793 38.8765 14.0728 40 15.7275 40C16.3894 40 17.0103 39.8208 17.5428 39.5073L17.5851 39.4824L32.4951 30.8791L25.5166 23.2822Z" fill="#EA4335"/>
<path d="M38.9173 20.8882L38.9048 20.8795L32.4675 17.1483L25.2153 23.6017L32.4937 30.8776L38.8961 27.1837C40.0183 26.5765 40.781 25.3933 40.781 24.0297C40.781 22.6736 40.0295 21.4966 38.9173 20.8882Z" fill="#FBBC04"/>
<path d="M12.2699 10.6577C12.1903 10.9514 12.1479 11.2599 12.1479 11.5784V36.4218C12.1479 36.7403 12.1903 37.0489 12.2711 37.3412L25.9718 23.6418L12.2699 10.6577Z" fill="#4285F4"/>
<path d="M25.6144 23.9999L32.4697 17.1458L17.5771 8.51135C17.0359 8.18663 16.4039 8.00001 15.7283 8.00001C14.0736 8.00001 12.6776 9.12597 12.2708 10.6538C12.2708 10.655 12.2695 10.6563 12.2695 10.6575L25.6144 23.9999Z" fill="#34A853"/>
<path d="M60.2799 11.9725C60.2799 12.958 59.9882 13.7424 59.4038 14.3281C58.7393 15.0243 57.8749 15.3724 56.8118 15.3724C55.7922 15.3724 54.9267 15.0196 54.2152 14.3128C53.5014 13.6072 53.1462 12.7311 53.1462 11.6868C53.1462 10.6413 53.5014 9.76635 54.2152 9.05958C54.9267 8.35397 55.7922 8 56.8118 8C57.3163 8 57.8009 8.09878 58.2595 8.29635C58.7193 8.49392 59.0874 8.75617 59.3638 9.08427L58.7428 9.7052C58.276 9.14778 57.6327 8.86789 56.8118 8.86789C56.0686 8.86789 55.4265 9.12896 54.8844 9.65111C54.3422 10.1744 54.0718 10.8518 54.0718 11.6868C54.0718 12.5206 54.3422 13.1991 54.8844 13.7213C55.4265 14.2446 56.0686 14.5045 56.8118 14.5045C57.5998 14.5045 58.256 14.2422 58.7828 13.7165C59.1239 13.3743 59.3203 12.8992 59.3732 12.2877H56.8118V11.4398H60.2305C60.2634 11.6244 60.2799 11.802 60.2799 11.9725Z" fill="white"/>
<path d="M60.2799 11.9725C60.2799 12.958 59.9882 13.7424 59.4038 14.3281C58.7393 15.0243 57.8749 15.3724 56.8118 15.3724C55.7922 15.3724 54.9267 15.0196 54.2152 14.3128C53.5014 13.6072 53.1462 12.7311 53.1462 11.6868C53.1462 10.6413 53.5014 9.76635 54.2152 9.05958C54.9267 8.35397 55.7922 8 56.8118 8C57.3163 8 57.8009 8.09878 58.2595 8.29635C58.7193 8.49392 59.0874 8.75617 59.3638 9.08427L58.7428 9.7052C58.276 9.14778 57.6327 8.86789 56.8118 8.86789C56.0686 8.86789 55.4265 9.12896 54.8844 9.65111C54.3422 10.1744 54.0718 10.8518 54.0718 11.6868C54.0718 12.5206 54.3422 13.1991 54.8844 13.7213C55.4265 14.2446 56.0686 14.5045 56.8118 14.5045C57.5998 14.5045 58.256 14.2422 58.7828 13.7165C59.1239 13.3743 59.3203 12.8992 59.3732 12.2877H56.8118V11.4398H60.2305C60.2634 11.6244 60.2799 11.802 60.2799 11.9725Z" fill="white"/>
<path d="M65.7003 9.0256H62.4875V11.2624H65.3852V12.1103H62.4875V14.347H65.7003V15.2149H61.5808V8.15889H65.7003V9.0256Z" fill="white"/>
<path d="M65.7003 9.0256H62.4875V11.2624H65.3852V12.1103H62.4875V14.347H65.7003V15.2149H61.5808V8.15889H65.7003V9.0256Z" fill="white"/>
<path d="M69.5237 15.2146H68.617V9.02527H66.646V8.15855H71.4947V9.02527H69.5237V15.2146Z" fill="white"/>
<path d="M69.5237 15.2146H68.617V9.02527H66.646V8.15855H71.4947V9.02527H69.5237V15.2146Z" fill="white"/>
<path d="M75.0029 8.15855H75.9096V15.2146H75.0029V8.15855Z" fill="white"/>
<path d="M79.9307 15.2146H79.024V9.02527H77.053V8.15855H81.9016V9.02527H79.9307V15.2146Z" fill="white"/>
<path d="M79.9307 15.2146H79.024V9.02527H77.053V8.15855H81.9016V9.02527H79.9307V15.2146Z" fill="white"/>
<path d="M86.5762 13.7118C87.0983 14.241 87.7369 14.5045 88.493 14.5045C89.2492 14.5045 89.8878 14.241 90.4099 13.7118C90.9321 13.1826 91.1943 12.5076 91.1943 11.6868C91.1943 10.8659 90.9321 10.1897 90.4099 9.66169C89.8878 9.13249 89.2492 8.86789 88.493 8.86789C87.7369 8.86789 87.0983 9.13249 86.5762 9.66169C86.0552 10.1897 85.7929 10.8659 85.7929 11.6868C85.7929 12.5076 86.0552 13.1826 86.5762 13.7118ZM91.0803 14.3022C90.3864 15.016 89.5244 15.3724 88.493 15.3724C87.4617 15.3724 86.5997 15.016 85.907 14.3022C85.2132 13.5895 84.8674 12.7181 84.8674 11.6868C84.8674 10.6554 85.2132 9.78282 85.907 9.07016C86.5997 8.3575 87.4617 8 88.493 8C89.5185 8 90.3782 8.35868 91.0756 9.07486C91.7717 9.79105 92.1198 10.6613 92.1198 11.6868C92.1198 12.7181 91.7729 13.5895 91.0803 14.3022Z" fill="white"/>
<path d="M86.5762 13.7118C87.0983 14.241 87.7369 14.5045 88.493 14.5045C89.2492 14.5045 89.8878 14.241 90.4099 13.7118C90.9321 13.1826 91.1943 12.5076 91.1943 11.6868C91.1943 10.8659 90.9321 10.1897 90.4099 9.66169C89.8878 9.13249 89.2492 8.86789 88.493 8.86789C87.7369 8.86789 87.0983 9.13249 86.5762 9.66169C86.0552 10.1897 85.7929 10.8659 85.7929 11.6868C85.7929 12.5076 86.0552 13.1826 86.5762 13.7118ZM91.0803 14.3022C90.3864 15.016 89.5244 15.3724 88.493 15.3724C87.4617 15.3724 86.5997 15.016 85.907 14.3022C85.2132 13.5895 84.8674 12.7181 84.8674 11.6868C84.8674 10.6554 85.2132 9.78282 85.907 9.07016C86.5997 8.3575 87.4617 8 88.493 8C89.5185 8 90.3782 8.35868 91.0756 9.07486C91.7717 9.79105 92.1198 10.6613 92.1198 11.6868C92.1198 12.7181 91.7729 13.5895 91.0803 14.3022Z" fill="white"/>
<path d="M93.3923 15.2146V8.15855H94.4954L97.9246 13.647H97.9646L97.9246 12.2875V8.15855H98.8325V15.2146H97.8858L94.2979 9.45921H94.259L94.2979 10.8198V15.2146H93.3923Z" fill="white"/>
<path d="M93.3923 15.2146V8.15855H94.4954L97.9246 13.647H97.9646L97.9246 12.2875V8.15855H98.8325V15.2146H97.8858L94.2979 9.45921H94.259L94.2979 10.8198V15.2146H93.3923Z" fill="white"/>
<path d="M130.273 35.2066H132.467V20.5054H130.273V35.2066ZM150.038 25.8009L147.522 32.1749H147.447L144.836 25.8009H142.472L146.387 34.7092L144.156 39.6648H146.444L152.478 25.8009H150.038ZM137.593 33.5367C136.873 33.5367 135.871 33.178 135.871 32.2878C135.871 31.1541 137.119 30.719 138.198 30.719C139.162 30.719 139.617 30.9271 140.203 31.2106C140.032 32.5724 138.86 33.5367 137.593 33.5367ZM137.858 25.4799C136.269 25.4799 134.623 26.1796 133.943 27.7308L135.89 28.5434C136.307 27.7308 137.082 27.465 137.895 27.465C139.03 27.465 140.184 28.1459 140.203 29.3572V29.5077C139.805 29.2807 138.955 28.9409 137.914 28.9409C135.815 28.9409 133.677 30.0945 133.677 32.2501C133.677 34.2176 135.399 35.4853 137.327 35.4853C138.803 35.4853 139.617 34.8232 140.127 34.0471H140.203V35.1819H142.321V29.5453C142.321 26.9358 140.373 25.4799 137.858 25.4799ZM124.296 27.5908H121.175V22.5516H124.296C125.937 22.5516 126.868 23.9099 126.868 25.0706C126.868 26.2102 125.937 27.5908 124.296 27.5908ZM124.24 20.5054H118.982V35.2066H121.175V29.6371H124.24C126.672 29.6371 129.062 27.8754 129.062 25.0706C129.062 22.2659 126.672 20.5054 124.24 20.5054ZM95.5675 33.539C94.0517 33.539 92.7827 32.2701 92.7827 30.5273C92.7827 28.7656 94.0517 27.4767 95.5675 27.4767C97.0646 27.4767 98.2382 28.7656 98.2382 30.5273C98.2382 32.2701 97.0646 33.539 95.5675 33.539ZM98.0877 26.6241H98.0112C97.5185 26.0373 96.5718 25.5069 95.3782 25.5069C92.8768 25.5069 90.5848 27.7037 90.5848 30.5273C90.5848 33.3309 92.8768 35.51 95.3782 35.51C96.5718 35.51 97.5185 34.9796 98.0112 34.3728H98.0877V35.0937C98.0877 37.0071 97.0646 38.0302 95.4158 38.0302C94.0705 38.0302 93.2367 37.0635 92.8956 36.2486L90.9823 37.0447C91.5315 38.3712 92.9909 40 95.4158 40C97.9924 40 100.172 38.4841 100.172 34.7903V25.8092H98.0877V26.6241ZM101.687 35.2066H103.885V20.5042H101.687V35.2066ZM107.124 30.3568C107.068 28.4246 108.621 27.4391 109.738 27.4391C110.611 27.4391 111.349 27.8742 111.595 28.4999L107.124 30.3568ZM113.945 28.6892C113.529 27.572 112.259 25.5069 109.663 25.5069C107.086 25.5069 104.946 27.5332 104.946 30.5085C104.946 33.3121 107.068 35.51 109.909 35.51C112.202 35.51 113.529 34.1082 114.078 33.2933L112.373 32.1561C111.805 32.9898 111.027 33.539 109.909 33.539C108.792 33.539 107.996 33.0275 107.484 32.0243L114.172 29.2572L113.945 28.6892ZM60.6626 27.0416V29.1631H65.7394C65.5877 30.3568 65.1902 31.2282 64.5845 31.8338C63.8448 32.5735 62.6888 33.3885 60.6626 33.3885C57.5356 33.3885 55.0919 30.8683 55.0919 27.7425C55.0919 24.6155 57.5356 22.0965 60.6626 22.0965C62.349 22.0965 63.5802 22.7598 64.4893 23.6124L65.9863 22.1153C64.7163 20.9029 63.031 19.9738 60.6626 19.9738C56.3808 19.9738 52.781 23.4607 52.781 27.7425C52.781 32.0243 56.3808 35.51 60.6626 35.51C62.9734 35.51 64.7163 34.7515 66.0804 33.3309C67.4834 31.9291 67.9185 29.9593 67.9185 28.367C67.9185 27.8742 67.8809 27.4203 67.8044 27.0416H60.6626ZM73.6915 33.539C72.1756 33.539 70.8679 32.2889 70.8679 30.5085C70.8679 28.708 72.1756 27.4767 73.6915 27.4767C75.2062 27.4767 76.5139 28.708 76.5139 30.5085C76.5139 32.2889 75.2062 33.539 73.6915 33.539ZM73.6915 25.5069C70.9244 25.5069 68.67 27.6096 68.67 30.5085C68.67 33.3885 70.9244 35.51 73.6915 35.51C76.4575 35.51 78.7119 33.3885 78.7119 30.5085C78.7119 27.6096 76.4575 25.5069 73.6915 25.5069ZM84.6436 33.539C83.1278 33.539 81.82 32.2889 81.82 30.5085C81.82 28.708 83.1278 27.4767 84.6436 27.4767C86.1595 27.4767 87.466 28.708 87.466 30.5085C87.466 32.2889 86.1595 33.539 84.6436 33.539ZM84.6436 25.5069C81.8777 25.5069 79.6233 27.6096 79.6233 30.5085C79.6233 33.3885 81.8777 35.51 84.6436 35.51C87.4096 35.51 89.664 33.3885 89.664 30.5085C89.664 27.6096 87.4096 25.5069 84.6436 25.5069Z" fill="white"/>
</svg>
