<svg width="26" height="29" viewBox="0 0 26 29" fill="none" xmlns="http://www.w3.org/2000/svg">
<path d="M24.9501 13.2752L3.9876 1.26265C3.67866 1.08682 3.32889 0.995403 2.97342 0.997597C2.61796 0.999791 2.26934 1.09552 1.9626 1.27515C1.66205 1.44867 1.41253 1.69832 1.23917 1.99896C1.06581 2.2996 0.97473 2.64061 0.975099 2.98765V27.0127C0.9784 27.5409 1.19057 28.0464 1.56529 28.4188C1.94 28.7912 2.44682 29.0002 2.9751 29.0002C3.32927 28.9989 3.67744 28.9086 3.9876 28.7377L24.9501 16.7252C25.2607 16.5567 25.52 16.3075 25.7007 16.0039C25.8814 15.7002 25.9768 15.3535 25.9768 15.0002C25.9768 14.6468 25.8814 14.3001 25.7007 13.9964C25.52 13.6928 25.2607 13.4436 24.9501 13.2752ZM15.0001 16.4127L17.3626 18.7752L6.3376 25.0752L15.0001 16.4127ZM6.3376 4.91265L17.3626 11.2252L15.0001 13.5877L6.3376 4.91265ZM19.1501 17.7377L16.4126 15.0002L19.1501 12.2627L23.9501 15.0002L19.1501 17.7377Z" fill="#141414"/>
</svg>
