<svg width="252" height="56" viewBox="0 0 252 56" fill="none" xmlns="http://www.w3.org/2000/svg">
<path d="M34.3317 24.7338C34.3317 32.9155 28.5511 40.0419 20.6335 41.6304C18.4199 42.1019 16.1366 42.1225 13.9153 41.6908C11.6939 41.2592 9.57848 40.3839 7.69106 39.1155C5.80364 37.847 4.18158 36.2106 2.91849 34.3005C1.65539 32.3905 0.776264 30.2447 0.331834 27.9869C-1.22819 20.3056 2.83214 12.3197 9.99113 8.9904C10.6429 8.664 10.6429 8.66401 10.8459 9.41472C11.4443 11.6451 12.0213 13.8973 12.6517 16.1168C12.7586 16.4867 12.7265 16.6717 12.3632 16.8784C10.8057 17.8457 9.57334 19.2717 8.82922 20.9677C8.08509 22.6638 7.8643 24.55 8.19604 26.3766C8.5489 28.2599 9.46722 29.9852 10.8242 31.3143C12.1812 32.6434 13.9099 33.5108 15.7718 33.7968C20.922 34.591 25.7089 30.8592 26.2538 25.6042C26.4721 23.2984 25.8307 20.9934 24.4569 19.147C23.083 17.3007 21.0774 16.0481 18.8384 15.6381C18.3148 15.5619 17.8019 15.4858 17.2783 15.4858C17.0646 15.4858 16.9578 15.4314 16.9151 15.192L14.9597 7.848C14.8315 7.40193 15.1948 7.51073 15.355 7.51073C16.5824 7.35163 17.8247 7.35163 19.0521 7.51073C23.2192 8.0112 26.7774 9.76288 29.6623 12.8637C32.6638 16.054 34.3338 20.3049 34.321 24.7229L34.3317 24.7338Z" fill="#CCCCCC"/>
<path d="M11.2947 24.255C11.3481 22.6121 12.2564 20.9366 14.0301 19.7507C14.3079 19.5657 14.3613 19.4025 14.2865 19.087C13.3249 15.4857 12.3632 11.8845 11.4229 8.25055C11.3666 8.02922 11.2289 7.83838 11.0383 7.71743L9.15771 6.68383C9.04901 6.63283 8.95311 6.55737 8.87722 6.46313C8.80134 6.3689 8.74745 6.25836 8.71962 6.13983C8.36701 4.79071 8.03578 3.49599 7.67248 2.17951C7.56563 1.864 7.67248 1.78784 7.96098 1.6464C8.40975 1.49408 8.70893 1.57024 9.08291 1.88576C9.75607 2.49503 10.4827 3.06079 11.1879 3.63743C11.5832 3.96383 11.8183 3.87679 11.9999 3.41983L13.0684 0.591036C13.1753 0.329916 13.8698 -0.040004 14.1049 0.003516C14.2331 0.036156 14.2331 0.166716 14.2652 0.275516L15.355 4.40991C15.3756 4.50845 15.3767 4.61015 15.3584 4.70913C15.34 4.80811 15.3026 4.90241 15.2482 4.98655C14.8635 5.62847 14.5002 6.25951 14.1049 6.86879C14.0422 6.96569 14.0027 7.07626 13.9897 7.19155C13.9767 7.30684 13.9906 7.42363 14.0301 7.53247L16.9151 18.4016C16.9899 18.6845 17.0967 18.7933 17.4066 18.7933C18.8699 18.8326 20.2665 19.4246 21.325 20.4541C22.3835 21.4837 23.0282 22.8772 23.1338 24.3638C23.2334 25.8811 22.762 27.3802 21.8153 28.5563C20.8686 29.7325 19.5177 30.4975 18.037 30.696C14.4682 31.24 11.2947 28.4438 11.2947 24.255Z" fill="#CCCCCC"/>
<path d="M44.8867 8.50091H34.2083V3.31141H61.5354V8.50091H50.8569V36.0794H44.8867V8.50091ZM83.7174 25.5027H64.3506C65.0301 29.1107 68.0395 31.4336 72.3109 31.4336C73.5414 31.4912 74.77 31.2832 75.9161 30.8232C77.0621 30.3633 78.0997 29.6618 78.9607 28.7647L82.0671 32.3726C79.8343 35.0415 76.3881 36.4254 72.1653 36.4254C63.9138 36.4254 58.5745 31.0382 58.5745 23.5752C58.5745 16.1122 64.1079 10.8733 71.3887 10.8733C78.5723 10.8733 83.8145 15.9639 83.8145 23.7729L83.7174 25.5521V25.5027ZM64.3021 21.5982H78.2811C77.8443 17.9903 75.1261 15.5191 71.3401 15.5191C69.6391 15.4569 67.977 16.047 66.6827 17.1727C65.3885 18.2984 64.5562 19.8777 64.3506 21.5982H64.3021ZM84.9794 23.6246C84.9794 16.1122 90.4642 10.8733 98.2789 10.8733C103.036 10.8733 106.87 12.8502 108.763 16.6558L104.298 19.2753C102.842 16.903 100.657 15.8156 98.2304 15.8156C93.959 15.8156 90.7555 18.7811 90.7555 23.6246C90.7555 28.5176 93.959 31.4336 98.2304 31.4336C100.657 31.4336 102.842 30.3463 104.298 27.9739L108.763 30.5934C106.822 34.3002 103.036 36.4254 98.2789 36.4254C90.5128 36.4254 84.9794 31.137 84.9794 23.6246ZM135.362 21.7959V36.1288H129.635V22.5867C129.635 18.1386 127.499 15.9639 123.81 15.9639C119.684 15.9639 116.918 18.4845 116.918 23.4763V36.1288H111.19V1.38386H116.918V14.0364C118.811 11.9606 121.723 10.8238 125.121 10.8238C130.994 10.8238 135.362 14.2835 135.362 21.7959ZM166.475 23.6246C166.475 31.4336 161.136 36.4748 154.001 36.4748C150.846 36.4748 148.128 35.3875 146.138 33.114V45.2228H140.41V11.1204H145.847V14.3823C147.788 12.01 150.652 10.8238 154.001 10.8238C155.67 10.7525 157.336 11.0373 158.891 11.6598C160.446 12.2824 161.856 13.2289 163.03 14.4389C164.205 15.6488 165.118 17.0954 165.711 18.6857C166.304 20.2761 166.565 21.9752 166.475 23.674V23.6246ZM160.651 23.6246C160.651 18.8305 157.496 15.8156 153.37 15.8156C149.196 15.8156 146.089 18.8799 146.089 23.6246C146.089 28.3693 149.196 31.4336 153.37 31.4336C157.544 31.4336 160.651 28.3693 160.651 23.6246ZM167.64 23.6246C167.64 16.1122 173.125 10.8733 180.649 10.8733C188.318 10.8733 193.754 16.1616 193.754 23.6246C193.754 31.137 188.318 36.4748 180.649 36.4748C173.125 36.4748 167.64 31.137 167.64 23.6246ZM188.026 23.6246C188.026 18.8305 184.871 15.8156 180.697 15.8156C176.571 15.8156 173.416 18.8799 173.416 23.6246C173.416 28.3693 176.571 31.4336 180.697 31.4336C184.871 31.4336 187.978 28.3693 187.978 23.6246H188.026ZM196.229 3.45967C196.229 1.48272 197.783 0 199.87 0C201.957 0 203.559 1.48271 203.559 3.36082C203.559 5.3872 202.054 7.0182 199.87 7.0182C197.783 7.0182 196.229 5.48605 196.229 3.5091V3.45967ZM197.006 11.1204H202.734V36.0794H197.006V11.1204ZM232.245 21.7959V36.1288H226.42V22.5867C226.42 18.1386 224.285 15.9639 220.596 15.9639C216.518 15.9639 213.752 18.4845 213.752 23.4763V36.1288H207.976V11.1204H213.412V14.3823C214.478 13.1987 215.788 12.2701 217.248 11.6633C218.709 11.0566 220.283 10.7868 221.858 10.8733C227.779 10.8238 232.148 14.2341 232.148 21.7959H232.245ZM252 34.7944C250.384 35.9529 248.442 36.5429 246.467 36.4748C241.127 36.4748 238.021 33.5094 238.021 28.0233V15.9639H233.944V11.3675H238.021V5.63432H243.748V11.3675H250.35V16.0133H243.748V27.9245C243.748 30.3957 244.962 31.6807 247.146 31.6807C248.36 31.6807 249.525 31.3347 250.398 30.6428L252 34.7944Z" fill="#CCCCCC"/>
<path d="M202.151 53.0813V55.7501H199.336V53.0813H202.151ZM212.927 55.503L212.441 55.7501L211.956 55.8984L211.665 55.9478H211.47C211.246 55.9511 211.023 55.9091 210.815 55.8243C210.607 55.7395 210.417 55.6135 210.257 55.4536L209.869 54.9594C209.723 54.7617 209.674 54.564 209.577 54.3169C209.106 54.8741 208.528 55.3281 207.879 55.6513L207.102 55.8984C206.374 56.0526 205.619 56.0014 204.918 55.7501C204.529 55.6019 204.19 55.3548 203.85 55.1076C203.555 54.833 203.323 54.4955 203.17 54.1192C202.976 53.7238 202.928 53.2789 202.928 52.7847C202.928 52.3893 202.976 52.0434 203.17 51.7468C203.347 51.4137 203.596 51.1262 203.898 50.9066L204.918 50.363L206.083 49.9181L207.296 49.5722L208.267 49.1768C208.533 49.0503 208.778 48.8837 208.995 48.6825C209.189 48.5343 209.286 48.3366 209.286 48.1389C209.303 47.9328 209.256 47.7266 209.151 47.5492C209.047 47.3719 208.89 47.2324 208.704 47.1504C208.558 47.101 208.364 47.0021 208.121 47.0021L207.49 46.9527L206.859 47.0021L206.277 47.2987C206.131 47.3975 205.986 47.5952 205.889 47.7929C205.743 47.9906 205.694 48.2377 205.646 48.4848H203.219C203.238 47.9296 203.388 47.3871 203.656 46.9033C203.905 46.4556 204.239 46.0632 204.639 45.7491C205.039 45.435 205.497 45.2057 205.986 45.0746C206.471 44.9263 206.956 44.8275 207.442 44.8275C208.024 44.8275 208.558 44.9263 209.092 45.0252C209.626 45.1734 210.063 45.3711 210.451 45.6677C210.839 45.9642 211.131 46.2608 211.373 46.6562C211.616 47.1504 211.713 47.6446 211.713 48.2377V53.3778C211.713 53.5261 211.762 53.6249 211.859 53.7732C211.956 53.9215 212.053 53.9214 212.247 53.9214H212.441C212.538 53.9214 212.781 53.8226 212.927 53.6743V55.503ZM209.238 50.6595C209.092 50.7583 208.898 50.8572 208.607 50.9066L207.83 51.1537L206.908 51.4008L206.083 51.7468C205.84 51.8457 205.646 51.9939 205.5 52.1422C205.355 52.2905 205.306 52.5376 205.306 52.7353C205.306 52.933 205.306 53.1307 205.403 53.2295C205.5 53.4272 205.549 53.5261 205.694 53.6249L206.083 53.872H206.471C206.956 53.872 207.442 53.7238 207.927 53.4272C208.413 53.1307 208.898 52.587 209.286 51.9445V50.6595H209.238ZM214.577 45.124V42.9988C214.577 42.6528 214.625 42.3563 214.771 42.1092C214.915 41.8108 215.119 41.5466 215.37 41.3338C215.621 41.1209 215.913 40.9641 216.227 40.8736C216.696 40.717 217.193 40.6664 217.683 40.7253L218.169 40.7747C218.363 40.7747 218.557 40.8736 218.8 40.9724L219.625 41.269V43.2459L218.8 42.9494L218.266 42.8011L217.926 42.7517H217.78L217.489 42.8011L217.247 42.9494C217.149 42.9988 217.101 43.0976 217.101 43.1965C217.004 43.2459 217.004 43.3942 217.004 43.493V45.0252H218.945V47.101H217.004V55.7007H214.577V47.101H212.927V45.0746L214.577 45.124ZM221.421 45.124L221.809 46.409C222.1 45.9148 222.44 45.5194 222.78 45.2723C223.12 45.0252 223.508 44.9263 223.896 44.9263L224.527 44.9757L225.498 45.3711V47.5458L224.818 47.2987L224.382 47.1998H223.993C223.654 47.1998 223.411 47.1998 223.168 47.3481L222.537 47.8423C222.201 48.3157 222.031 48.8897 222.052 49.4733V55.849H219.576V45.124H221.421ZM228.362 41.1701V43.6413H225.935V41.1701H228.362ZM228.362 45.124V55.7501H225.935V45.124H228.362ZM236.371 48.9297C236.176 48.2377 235.934 47.694 235.643 47.3975C235.303 47.0515 234.914 46.9033 234.381 46.9033C234.041 46.9033 233.701 47.0021 233.41 47.1998C233.119 47.3975 232.876 47.6446 232.633 47.9412C232.224 48.6445 232.006 49.4464 232.002 50.2641C232.002 50.7583 232.099 51.2526 232.196 51.648C232.375 52.4255 232.802 53.1208 233.41 53.6249C233.701 53.872 234.041 53.9709 234.381 53.9709C234.623 53.9709 234.866 53.9215 235.109 53.7732C235.351 53.6249 235.545 53.4766 235.691 53.2789C235.885 53.0318 236.031 52.7847 236.128 52.4882L236.371 51.5491H238.895C238.798 52.241 238.652 52.8835 238.409 53.4272C238.193 53.9477 237.875 54.4177 237.475 54.8087C237.074 55.1996 236.599 55.5031 236.079 55.7007C235.03 56.0821 233.887 56.0994 232.827 55.7501C231.979 55.4725 231.245 54.9163 230.74 54.1686C230.497 53.8226 230.255 53.4272 230.109 53.0318C229.761 52.1705 229.596 51.2443 229.624 50.3135C229.624 49.5227 229.721 48.8308 229.964 48.1389C230.206 47.4964 230.546 46.9033 230.934 46.409C231.371 45.9148 231.905 45.5688 232.439 45.3217C233.626 44.8029 234.964 44.7675 236.176 45.2229C236.662 45.4206 237.099 45.7171 237.487 46.0631C237.827 46.409 238.167 46.8538 238.409 47.3481C238.652 47.8423 238.798 48.3366 238.895 48.9297H236.371ZM249.622 55.503L249.088 55.7501L248.651 55.8984L248.36 55.9478H248.117C247.893 55.9511 247.67 55.9091 247.462 55.8243C247.253 55.7395 247.064 55.6135 246.903 55.4536L246.515 54.9594L246.224 54.3169C245.766 54.8689 245.205 55.3225 244.574 55.6513L243.748 55.8984C243.036 56.0436 242.299 55.9924 241.613 55.7501C241.127 55.6019 240.836 55.3548 240.545 55.1076C240.232 54.8382 239.983 54.5003 239.817 54.1192C239.671 53.7238 239.574 53.2789 239.574 52.7847C239.574 52.3893 239.671 52.0434 239.865 51.7468C240.042 51.4137 240.291 51.1262 240.593 50.9066L241.564 50.363C242.001 50.1653 242.341 50.017 242.778 49.9181L243.943 49.5722L244.913 49.1768C245.196 49.0548 245.458 48.888 245.69 48.6825C245.836 48.5343 245.981 48.3366 245.981 48.1389C245.994 47.927 245.94 47.7164 245.826 47.5384C245.713 47.3603 245.546 47.2243 245.35 47.1504C245.205 47.101 245.01 47.0021 244.768 47.0021L244.137 46.9527L243.506 47.0021C243.312 47.0515 243.117 47.1504 242.972 47.2987C242.778 47.3975 242.632 47.5952 242.535 47.7929C242.438 47.9906 242.341 48.2377 242.341 48.4848H239.865C239.884 47.9296 240.034 47.3871 240.302 46.9033C240.551 46.4556 240.885 46.0632 241.286 45.7491C241.686 45.435 242.144 45.2057 242.632 45.0746C243.117 44.9263 243.603 44.8275 244.137 44.8275C244.719 44.8275 245.253 44.9263 245.787 45.0252C246.272 45.1734 246.758 45.3711 247.098 45.6677C247.437 45.9642 247.826 46.2608 248.068 46.6562C248.263 47.1504 248.36 47.6446 248.36 48.2377V53.3778C248.36 53.5261 248.408 53.6249 248.505 53.7732C248.602 53.9215 248.748 53.9214 248.894 53.9214H249.136C249.282 53.9214 249.427 53.8226 249.622 53.6743V55.503ZM245.884 50.6595L245.302 50.9066L244.477 51.1537L243.603 51.4008L242.778 51.7468C242.535 51.8457 242.292 51.9939 242.195 52.1422C242.098 52.2905 241.953 52.5376 241.953 52.7353C241.953 52.933 241.953 53.1307 242.05 53.2295L242.341 53.6249L242.729 53.872H243.166C243.651 53.872 244.137 53.7238 244.622 53.4272C245.108 53.1307 245.544 52.587 245.933 51.9445V50.6595H245.884Z" fill="#CCCCCC"/>
</svg>
