<svg width="247" height="36" viewBox="0 0 247 36" fill="none" xmlns="http://www.w3.org/2000/svg">
<path d="M0 36V0H35.7971V28.2136L35.6537 28.3722C33.8567 30.1842 32.0549 31.9915 30.2531 33.7987C29.5219 34.534 28.7906 35.2646 28.0546 36H0ZM23.5668 13.8713H24.862C25.2348 13.8713 25.34 13.9722 25.3447 14.3567C25.3447 14.996 25.34 15.6401 25.34 16.2793C25.34 16.6542 25.469 16.7984 25.837 16.7984C27.1848 16.8032 28.5278 16.8032 29.8755 16.7984C30.3391 16.7936 30.4443 16.6686 30.4443 16.2024C30.4443 14.1741 30.449 12.1506 30.449 10.1223C30.449 9.56956 30.3439 9.45421 29.7991 9.45421C27.4906 9.4494 25.1775 9.45421 22.869 9.4494C22.5966 9.4494 22.3577 9.51669 22.1521 9.71856C21.1055 10.7712 20.0636 11.8334 18.9978 12.8619C18.5868 13.2561 18.4482 13.7079 18.4482 14.2558C18.453 18.4037 18.453 22.5517 18.453 26.7044C18.453 26.815 18.4577 26.9303 18.4625 27.0409C18.4912 27.4013 18.4912 27.4013 18.8592 27.4013C21.311 27.4013 23.7676 27.3965 26.2193 27.4061C26.5204 27.4061 26.7594 27.3148 26.9697 27.1033C27.9973 26.0748 29.0296 25.051 30.0571 24.0224C30.2913 23.7869 30.4156 23.5033 30.4156 23.1621C30.4204 21.5904 30.4299 20.0235 30.4395 18.4518C30.4395 18.0577 30.3104 17.9375 29.9185 17.9375C28.9627 17.9375 28.0068 17.9423 27.0509 17.9423C26.6351 17.9423 26.2241 17.9327 25.8083 17.9375C25.4833 17.9375 25.3638 18.0577 25.34 18.3797C25.3352 18.4662 25.3352 18.5575 25.3352 18.6441C25.3352 20.1485 25.3352 21.6577 25.34 23.1621V23.4216H23.562C23.5668 20.2446 23.5668 17.082 23.5668 13.8713ZM5.39585 9.53111V9.77623C5.39585 13.9722 5.40063 18.1682 5.40063 22.3642C5.40063 22.9794 5.58224 23.5178 5.99805 23.9648C6.94435 24.9789 7.90499 25.9834 8.86086 26.9928C9.1524 27.3004 9.49173 27.4254 9.92665 27.4254C12.2781 27.4109 14.6247 27.4158 16.9761 27.4158C17.3298 27.4158 17.3394 27.4061 17.3441 27.036L17.4015 17.2838C17.4063 16.8032 17.3155 16.7167 16.828 16.7167C15.5615 16.7119 14.2949 16.7119 13.0284 16.7023C12.3545 16.6975 12.2542 16.7936 12.259 17.4713C12.2685 19.067 12.2685 20.6579 12.2733 22.2537C12.2733 22.4892 12.2542 22.7247 12.2446 22.9554H10.5336V14.8566H10.8013C12.7369 14.8518 14.6725 14.8518 16.6081 14.847C16.6798 14.847 16.7515 14.8518 16.8232 14.8422C17.0908 14.8085 17.325 14.6547 17.325 14.4817C17.3346 13.5637 17.3298 12.6409 17.3298 11.6988C17.2247 11.6892 17.1052 11.6748 16.9905 11.6748C15.2126 11.6652 13.4394 11.6603 11.6615 11.6459C11.4369 11.6459 11.2171 11.6363 10.9924 11.6075C10.6818 11.5642 10.548 11.4441 10.5193 11.1316C10.481 10.7664 10.4763 10.3963 10.4763 10.031C10.4715 9.57917 10.3759 9.46863 9.91231 9.46863H5.94547C5.76386 9.47824 5.5918 9.51188 5.39585 9.53111Z" fill="#CCCCCC"/>
<path fill-rule="evenodd" clip-rule="evenodd" d="M115.528 30.1949V0H123.245L122.959 10.2549L124.503 9.11545C125.417 8.48877 127.018 7.80511 128.104 7.63419C129.438 7.40631 130.962 7.65318 132.677 8.37482C134.563 9.17243 135.535 10.027 136.221 11.5652C137.078 13.2744 137.25 15.2684 137.25 30.1949H129.247V23.0735C129.247 19.1425 129.019 15.4393 128.676 14.8126C128.333 14.1859 127.647 13.6732 127.132 13.6732C126.561 13.6732 124.598 13.7391 123.817 14.8696C123.311 15.6015 123.326 17.0915 123.326 17.0915C123.326 17.0915 123.528 22.6241 123.245 30.1949H115.528ZM238.997 30.1949V0H247V30.1949H238.997ZM188.695 0V30.1949C194.526 30.1949 195.04 30.024 195.269 29.0555C195.391 28.5696 195.461 28.2909 195.625 28.215C195.846 28.113 196.237 28.3777 197.155 28.9985C198.013 29.5683 199.556 30.1949 200.585 30.4228C201.785 30.6507 203.271 30.4228 204.872 29.7392C206.701 28.9416 207.559 28.087 208.53 26.15C209.559 24.2129 209.845 22.6177 209.845 19.0855C209.845 15.4393 209.616 14.015 208.587 12.021C207.673 10.3119 206.53 9.17243 204.986 8.37482C203.386 7.57722 202.128 7.34933 200.813 7.63419C199.842 7.80511 198.356 8.60271 197.555 9.40031L196.126 10.8246V0H188.695ZM50.9931 9.57123C51.9648 8.8306 53.2224 7.17842 53.8511 5.8111C54.0424 5.3897 54.3656 3.4183 54.3656 3.4183H59.7959C59.7959 3.4183 59.8876 4.88669 59.9674 5.86807C60.0079 6.61374 60.034 7.09564 60.2786 7.40707C60.7255 7.97602 61.9016 7.97602 65.2263 7.97602V13.6732H60.0817C60.0817 13.6732 60.0817 22.6177 60.3676 24.2129C60.6534 25.8081 63.295 25.52 65.7979 23.9281V29.3404C65.7979 29.3404 62.7683 30.2519 61.5108 30.4798C60.2532 30.6507 58.1383 30.5937 56.8235 30.2519C55.0515 29.7961 54.0798 29.1125 53.2224 27.8021C52.2506 26.2069 52.0791 24.8966 52.0791 13.6732H49.221L49.221 10.8246C49.221 10.8246 50.4393 9.95755 50.9931 9.57123ZM75.2296 8.26088C73.972 8.71665 72.3143 9.68517 71.6284 10.4258C70.8853 11.1095 69.9135 12.3059 69.5134 13.1035C69.1133 13.9011 68.656 15.6102 68.4273 16.9775C68.2558 18.2879 68.3702 20.7377 68.7131 22.3898C69.2276 24.4978 69.9707 25.9221 71.4569 27.4033C73.0574 28.9985 74.2578 29.6252 76.9444 30.1949C79.5738 30.7077 81.1744 30.7077 83.8038 30.2519C85.6901 29.8531 88.6625 28.7707 88.6625 28.7707V23.3584C88.6625 23.3584 85.633 24.2699 84.3754 24.6117C83.1178 24.8966 81.1172 25.0105 79.974 24.8396C78.6021 24.6117 77.0587 24.099 76.5443 23.3584C76.087 22.6177 76.087 21.0795 76.087 21.0795H89.8057C89.8057 16.123 89.4056 14.2429 88.5482 12.5907C87.6908 10.9385 86.4904 9.68517 85.2328 9.00151C84.1468 8.4318 81.9746 7.86208 80.3741 7.69116C78.5449 7.52025 76.7158 7.69116 75.2296 8.26088ZM97.1224 9.74214C97.9799 9.11545 99.6947 8.37482 100.952 8.03299C102.21 7.74814 104.382 7.57722 105.811 7.69116C107.24 7.86208 109.241 8.20391 112.099 9.11545L111.013 11.8501C110.212 13.7871 109.641 14.5278 108.841 14.4138C108.269 14.3568 106.897 14.129 105.811 13.9011C104.21 13.5592 103.582 13.7302 102.553 14.7556C101.467 15.7242 101.238 16.5787 101.238 19.0855C101.238 21.4783 101.524 22.5038 102.381 23.3584C103.01 23.985 104.096 24.4978 104.839 24.4978C105.525 24.4408 107.126 24.099 108.383 23.6432C109.641 23.1874 110.841 22.7886 111.127 22.7886C111.356 22.7886 111.527 24.099 111.527 25.6372C111.527 28.2579 111.413 28.5428 109.698 29.4543C108.498 30.081 106.44 30.4228 104.096 30.4228C101.81 30.4228 99.7519 30.081 98.6658 29.5113C97.7512 28.9985 96.3793 27.973 95.6934 27.2324C95.0075 26.5488 94.2072 25.2384 93.8642 24.3838C93.5212 23.4723 93.2354 21.1365 93.2354 19.0855C93.2354 16.5218 93.5784 14.6987 94.3787 13.1035C95.0074 11.8501 96.2078 10.3119 97.1224 9.74214ZM150.683 7.63419C150.34 7.74814 149.425 8.03299 148.568 8.20391C147.653 8.37482 145.938 9.51425 144.624 10.7107C143.309 11.9071 142.109 13.6732 141.766 14.8126C141.48 15.8951 141.251 18.003 141.251 19.5413C141.251 21.0225 141.651 23.1874 142.166 24.3838C142.623 25.5233 143.595 27.0615 144.281 27.8021C144.967 28.5428 146.967 29.5113 148.682 30.024C150.74 30.5368 152.626 30.7077 154.112 30.4798C155.37 30.2519 157.085 29.6822 157.999 29.2834C159.371 28.5997 159.543 28.2009 159.543 25.6372C159.543 24.099 159.486 22.7886 159.429 22.7886C159.353 22.7886 158.756 22.962 157.899 23.2108C157.456 23.3393 156.944 23.488 156.399 23.6432C154.856 24.156 153.198 24.4978 152.855 24.4978C152.455 24.4978 151.483 23.8711 150.683 23.0735C149.597 21.991 149.254 21.0225 149.254 19.2564C149.197 17.5472 149.597 16.2939 150.511 15.1544C151.655 13.7302 152.112 13.5592 153.827 13.9011C154.913 14.072 156.342 14.4138 156.971 14.5847C157.885 14.8126 158.285 14.4708 158.914 12.7047C159.159 12.0628 159.405 11.4045 159.597 10.8882L159.598 10.8868L159.598 10.8848L159.6 10.8818L159.601 10.8791L159.603 10.8737L159.604 10.8706C159.767 10.4332 159.891 10.1003 159.943 9.97003C160.057 9.68517 159.486 9.05848 158.685 8.71665C157.885 8.31785 155.885 7.86208 154.284 7.69116C152.626 7.57722 151.026 7.52025 150.683 7.63419ZM166.002 9.05848C166.688 8.65968 168.403 8.20391 169.832 7.97602C171.261 7.74814 173.033 7.52025 173.833 7.46328C174.633 7.46328 176.291 7.69116 177.549 7.97602C178.806 8.26088 182.407 9.68517 183.265 11.964C184.122 14.2429 183.551 30.1949 183.551 30.1949H180.864C178.52 30.2519 178.006 30.024 176.691 27.3464L175.148 28.6567C174.233 29.3973 172.519 30.1949 171.261 30.4228C169.718 30.7077 168.346 30.5937 166.974 30.024C165.888 29.5683 164.459 28.6567 163.83 27.9161C162.973 27.0045 162.687 25.8651 162.687 23.6432C162.687 21.4213 162.973 20.2819 163.83 19.3703C164.459 18.6867 165.659 17.7751 166.574 17.3194C167.431 16.8636 169.775 16.3508 171.833 16.123C174.576 15.7811 175.548 15.4393 175.434 14.8696C175.319 14.4138 174.805 13.7871 174.291 13.4453C173.547 12.9895 172.633 12.9895 170.689 13.5592C169.26 13.9011 167.831 14.2999 167.488 14.4138C167.145 14.4708 166.345 13.4453 164.687 9.68517L166.002 9.05848ZM219.841 8.19249L219.84 8.19282C219.251 8.34287 218.606 8.50696 218.019 8.65968C216.704 9.00151 215.618 9.6282 215.561 10.027C215.561 10.4828 215.961 11.6792 216.476 12.7047C216.672 13.0734 216.859 13.4339 217.02 13.7422L217.021 13.7451C217.281 14.2449 217.469 14.6065 217.505 14.6417C217.505 14.6987 218.591 14.4138 219.848 13.958C221.106 13.5023 222.706 13.1604 223.449 13.1035C224.135 13.1035 225.107 13.5023 225.564 13.958C226.022 14.4138 226.422 14.9835 226.422 15.2684C226.422 15.4963 224.707 15.8381 222.592 16.009C220.42 16.2369 217.848 16.8066 216.876 17.3194C215.847 17.8321 214.532 18.9146 214.018 19.7122C213.389 20.6237 213.103 22.105 213.16 23.8141C213.218 25.2954 213.618 27.0615 214.132 27.8021C214.589 28.4858 215.961 29.4543 217.162 29.9671C218.476 30.5368 220.02 30.7077 221.277 30.5368C222.363 30.3659 224.193 29.6252 225.336 28.9416L227.451 27.6312C228.594 29.9671 229.166 30.1949 231.281 30.1949H233.853C233.853 15.2114 233.624 12.7047 232.995 11.3943C232.538 10.4828 231.281 9.28637 230.309 8.77362C229.28 8.26088 227.165 7.74814 225.564 7.63419C224.021 7.57722 222.192 7.57722 221.563 7.74814C221.215 7.84264 220.571 8.00681 219.841 8.19249ZM77.2302 13.958C76.3727 14.6987 76.3727 15.952 76.3727 15.952L79.974 15.952L83.2322 16.009C83.2322 13.6732 80.6599 13.1035 79.8024 13.1035C78.6592 13.1035 77.8017 13.3883 77.2302 13.958ZM197.612 14.4138C196.812 14.9835 196.526 15.895 196.469 18.003C196.469 19.5412 196.584 21.4213 196.812 22.2189C197.041 23.0165 197.67 23.8141 198.241 24.042C198.813 24.2129 199.842 24.042 200.585 23.5862C201.671 22.9026 201.842 22.3328 201.842 19.0855C201.842 16.5787 201.557 15.0974 200.985 14.5277C200.528 14.072 199.785 13.6732 199.384 13.6732C198.984 13.6732 198.184 14.015 197.612 14.4138ZM170.575 23.1304C170.461 22.6177 170.804 21.8201 171.318 21.3643C171.775 20.9086 172.976 20.5097 173.89 20.5097C175.377 20.5097 175.548 20.6807 175.548 22.2189C175.548 23.4723 175.148 24.099 174.062 24.6117C172.976 25.1814 172.347 25.1814 171.661 24.7256C171.147 24.3838 170.632 23.6432 170.575 23.1304ZM221.62 21.7631C220.992 22.6747 220.934 23.3583 221.277 24.042C221.62 24.6117 222.363 25.0675 222.992 25.0675C223.621 25.0675 224.65 24.5547 225.279 23.928C225.907 23.3014 226.422 22.2759 226.422 21.6492C226.422 20.7376 226.022 20.5097 224.421 20.5097C223.049 20.5097 222.249 20.8516 221.62 21.7631Z" fill="#CCCCCC"/>
</svg>
