<svg width="28" height="24" viewBox="0 0 28 24" fill="none" xmlns="http://www.w3.org/2000/svg">
<path d="M27.7126 4.71262L23.9376 8.47512C23.1876 17.2126 15.8126 24.0001 7.00009 24.0001C5.18759 24.0001 3.68759 23.7126 2.55009 23.1501C1.63759 22.6876 1.26259 22.2001 1.16259 22.0501C1.07985 21.9244 1.02654 21.7817 1.00662 21.6326C0.9867 21.4835 1.00069 21.3318 1.04755 21.1888C1.09441 21.0458 1.17292 20.9152 1.27725 20.8068C1.38157 20.6984 1.50902 20.6149 1.65009 20.5626C1.67509 20.5501 4.62509 19.4251 6.53759 17.2626C5.35152 16.4181 4.30903 15.3883 3.45009 14.2126C1.73759 11.8876 -0.0749113 7.85012 1.01259 1.82512C1.04678 1.646 1.1287 1.47944 1.24971 1.34303C1.37072 1.20662 1.52633 1.10542 1.70009 1.05012C1.87441 0.993039 2.06106 0.985004 2.23964 1.02689C2.41822 1.06878 2.58184 1.15898 2.71259 1.28762C2.75009 1.33762 6.91259 5.43762 12.0001 6.76262V6.00012C12.005 5.20726 12.166 4.42313 12.474 3.6925C12.7819 2.96188 13.2308 2.29906 13.7949 1.74191C14.359 1.18475 15.0274 0.74417 15.7618 0.445312C16.4962 0.146455 17.2822 -0.0048227 18.0751 0.000117191C19.1157 0.0149587 20.1347 0.299095 21.0329 0.824842C21.931 1.35059 22.6777 2.10002 23.2001 3.00012H27.0001C27.1975 2.9995 27.3907 3.05733 27.5553 3.16633C27.7199 3.27533 27.8486 3.43062 27.9251 3.61262C27.9971 3.79733 28.0154 3.99866 27.9778 4.19333C27.9402 4.38799 27.8482 4.56803 27.7126 4.71262Z" fill="#333333"/>
</svg>
