<svg width="27" height="28" viewBox="0 0 27 28" fill="none" xmlns="http://www.w3.org/2000/svg">
<path d="M14.3375 3.7C14.7038 2.76032 15.3443 1.95259 16.1759 1.38188C17.0074 0.811176 17.9915 0.503893 19 0.5C19.2652 0.5 19.5196 0.605357 19.7071 0.792893C19.8946 0.98043 20 1.23478 20 1.5C20 1.76522 19.8946 2.01957 19.7071 2.20711C19.5196 2.39464 19.2652 2.5 19 2.5C18.3938 2.50188 17.8022 2.68662 17.3027 3.03006C16.8031 3.3735 16.4188 3.85966 16.2 4.425C16.1266 4.61366 15.9977 4.77561 15.8303 4.88944C15.6629 5.00327 15.4649 5.06362 15.2625 5.0625C15.1433 5.05994 15.0252 5.03885 14.9125 5C14.789 4.95296 14.676 4.8819 14.5801 4.79092C14.4842 4.69994 14.4073 4.59085 14.3538 4.46996C14.3003 4.34906 14.2714 4.21877 14.2686 4.08661C14.2658 3.95445 14.2892 3.82305 14.3375 3.7ZM25.75 19.475C24.9508 19.0736 24.274 18.4652 23.7899 17.7133C23.3059 16.9613 23.0324 16.0933 22.9979 15.1996C22.9634 14.306 23.1693 13.4195 23.594 12.6325C24.0186 11.8455 24.6466 11.1868 25.4125 10.725C25.5314 10.6496 25.6334 10.5505 25.7123 10.4339C25.7912 10.3173 25.8452 10.1857 25.871 10.0474C25.8968 9.90897 25.8939 9.76675 25.8623 9.62957C25.8307 9.49239 25.7712 9.36318 25.6875 9.25C24.3287 7.51881 22.3514 6.38212 20.1717 6.07905C17.9919 5.77597 15.7795 6.33015 14 7.625C12.7319 6.7026 11.2334 6.14895 9.67016 6.02532C8.10695 5.90169 6.54001 6.21289 5.14268 6.92449C3.74535 7.63609 2.57211 8.72036 1.75273 10.0573C0.933355 11.3943 0.49979 12.9319 0.5 14.5C0.530087 17.7968 1.52523 21.0125 3.3625 23.75C5.1625 26.4125 7.45 28 9.5 28H18.5C21.3125 28 24.4875 25.0125 26.2375 20.75C26.336 20.5156 26.3403 20.2522 26.2495 20.0147C26.1587 19.7772 25.9798 19.5839 25.75 19.475Z" fill="#141414"/>
</svg>
