<svg width="30" height="18" viewBox="0 0 30 18" fill="none" xmlns="http://www.w3.org/2000/svg">
<path d="M16 9C16 13.6875 12.4125 17.5 8 17.5C3.5875 17.5 0 13.6875 0 9C0 4.3125 3.5875 0.5 8 0.5C12.4125 0.5 16 4.3125 16 9ZM22 1C21.2875 1 19.95 1.35 18.9625 3.6625C18.3375 5.1 18 7 18 9C18 11 18.3375 12.9 18.9625 14.3375C19.95 16.65 21.2875 17 22 17C22.7125 17 24.05 16.65 25.0375 14.3375C25.6625 12.9 26 11 26 9C26 7 25.6625 5.1 25.0375 3.6625C24.05 1.35 22.7125 1 22 1ZM29 1C28.7348 1 28.4804 1.10536 28.2929 1.29289C28.1054 1.48043 28 1.73478 28 2V16C28 16.2652 28.1054 16.5196 28.2929 16.7071C28.4804 16.8946 28.7348 17 29 17C29.2652 17 29.5196 16.8946 29.7071 16.7071C29.8946 16.5196 30 16.2652 30 16V2C30 1.73478 29.8946 1.48043 29.7071 1.29289C29.5196 1.10536 29.2652 1 29 1Z" fill="#333333"/>
</svg>
