<svg width="21" height="20" viewBox="0 0 21 20" fill="none" xmlns="http://www.w3.org/2000/svg">
<path d="M15.2725 16.875L15.2725 3.125C15.2725 2.43464 14.7128 1.875 14.0225 1.875L6.52246 1.875C5.8321 1.875 5.27246 2.43464 5.27246 3.125L5.27246 16.875C5.27246 17.5654 5.8321 18.125 6.52246 18.125H14.0225C14.7128 18.125 15.2725 17.5654 15.2725 16.875Z" stroke="white" stroke-width="1.5" stroke-linecap="round" stroke-linejoin="round"/>
<path d="M10.2725 5.46875C10.7039 5.46875 11.0537 5.11897 11.0537 4.6875C11.0537 4.25603 10.7039 3.90625 10.2725 3.90625C9.84099 3.90625 9.49121 4.25603 9.49121 4.6875C9.49121 5.11897 9.84099 5.46875 10.2725 5.46875Z" fill="white"/>
</svg>
