<svg width="77" height="68" viewBox="0 0 77 68" fill="none" xmlns="http://www.w3.org/2000/svg">
<path d="M65.06 57.1199C62.4855 59.6157 59.5196 61.6729 56.28 63.2099C53.1164 64.6886 49.7806 65.7669 46.35 66.4199C43.9074 66.9386 41.4252 67.2497 38.93 67.3499C30.1533 67.5519 21.5122 65.1586 14.09 60.4699C10.8013 58.3834 7.86189 55.7916 5.38004 52.7899C3.76958 50.8574 2.42436 48.7185 1.38004 46.4299C0.463238 44.0916 -0.00492352 41.6015 3.90425e-05 39.0899C3.90425e-05 37.5399 1.07004 37.6899 2.40004 38.6799C4.08871 39.9845 5.54284 41.5671 6.70004 43.3599C8.39772 47.0772 10.9097 50.365 14.05 52.9799C17.3333 55.7459 21.0497 57.9521 25.05 59.5099C29.98 61.5099 35.73 61.7499 41.13 61.2699C47.1044 60.8775 52.8519 58.8313 57.73 55.3599C60.6892 53.1729 63.1842 50.4196 65.07 47.2599C67.9908 42.3346 69.7647 36.8147 70.26 31.1099C70.565 26.707 70.269 22.283 69.38 17.9599C69.2 17.0099 68.95 16.0899 68.77 15.1399C68.33 11.5799 68.44 10.3999 69.92 9.21994C70.1909 8.95238 70.4781 8.7019 70.78 8.46994C71.62 7.86994 73.39 9.03994 74.41 11.7799C75.2252 13.8174 75.8056 15.9411 76.14 18.1099C76.5228 20.3215 76.7533 22.5568 76.83 24.7999C76.9889 29.4339 76.5077 34.0675 75.4 38.5699C73.7668 45.6079 70.2275 52.0603 65.17 57.2199L65.06 57.1199Z" fill="#231F20"/>
<path d="M19.3401 11.6001C19.7101 14.8401 21.7201 18.9301 24.8301 20.3601C26.1701 20.9801 28.1601 20.5901 28.5001 18.8701C28.9604 15.8384 28.341 12.7414 26.7501 10.1201C26.112 8.86428 25.1658 7.79083 24.0001 7.00007C23.5796 6.77995 23.114 6.65966 22.6394 6.64855C22.1649 6.63744 21.6942 6.7358 21.2638 6.93599C20.8335 7.13619 20.455 7.43284 20.1578 7.80294C19.8606 8.17303 19.6526 8.60662 19.5501 9.07007C18.6501 12.1601 23.4701 13.4801 24.3701 10.3901L24.4801 9.99007L23.3301 11.4901L22.7401 11.6601L21.0001 10.9301C22.6901 12.2801 24.1301 15.3401 23.7001 17.5401L27.3701 16.0401C26.584 15.5548 25.9101 14.908 25.3929 14.1425C24.8757 13.3771 24.5271 12.5104 24.3701 11.6001C24.35 10.9434 24.0802 10.3191 23.6156 9.85453C23.1511 9.38997 22.5268 9.12013 21.8701 9.10007C21.2087 9.1053 20.5758 9.37037 20.1081 9.83808C19.6404 10.3058 19.3753 10.9386 19.3701 11.6001H19.3401Z" fill="#231F20"/>
<path d="M34.48 4.90999C34.86 8.21999 36.94 12.64 40.12 14.13C41.46 14.75 43.46 14.35 43.79 12.63C44.2354 9.47175 43.5747 6.25666 41.92 3.52999C41.2805 2.25241 40.3231 1.16078 39.14 0.359994C38.7242 0.139532 38.2635 0.016963 37.7931 0.00163866C37.3227 -0.0136857 36.8551 0.0786397 36.4258 0.27157C35.9965 0.464501 35.617 0.752939 35.3162 1.11488C35.0153 1.47681 34.8011 1.90268 34.69 2.35999C33.79 5.45999 38.62 6.77999 39.51 3.68999L39.63 3.28999L38.48 4.78999L37.88 4.95999L36.11 4.23C37.87 5.64 39.41 9.00999 38.97 11.29L42.64 9.79999C41.12 9.08999 39.64 6.54 39.48 4.9C39.12 1.74 34.11 1.7 34.48 4.9V4.90999Z" fill="#231F20"/>
</svg>
