<svg width="177" height="130" viewBox="0 0 177 130" fill="none" xmlns="http://www.w3.org/2000/svg">
<path d="M29.8158 47.037L26.6593 46.0819L28.0137 49.0887L48.6434 94.889L48.801 95.239L49.1073 95.4702L57.0544 101.469L57.0949 101.5L57.1374 101.528L57.9582 100.272C57.1374 101.528 57.1382 101.528 57.1391 101.529L57.141 101.53L57.1458 101.533L57.1587 101.542L57.1984 101.567C57.2309 101.587 57.2758 101.615 57.3333 101.649C57.4482 101.718 57.6132 101.814 57.8299 101.932C58.2634 102.169 58.9035 102.497 59.7634 102.88C61.4835 103.647 64.0806 104.638 67.6581 105.58C74.8146 107.463 85.8809 109.142 101.682 108.44L101.682 108.44C108.524 108.135 114.465 107.089 118.698 106.119C120.816 105.634 122.51 105.166 123.679 104.819C124.264 104.645 124.717 104.501 125.027 104.4C125.183 104.349 125.302 104.309 125.384 104.281C125.425 104.267 125.456 104.256 125.478 104.249L125.504 104.24L125.512 104.237L125.514 104.236L125.515 104.236C125.515 104.236 125.516 104.236 125.015 102.822L125.516 104.236L127.576 103.506L126.154 101.846L92.2698 62.2826L91.6863 61.6013L90.8101 61.793L90.81 61.793L90.8098 61.793L90.8077 61.7935L90.798 61.7956L90.7569 61.8045C90.72 61.8124 90.6641 61.8243 90.5903 61.8398C90.4425 61.8709 90.2229 61.9165 89.9386 61.9737C89.3701 62.0882 88.5436 62.2491 87.5183 62.4335C85.4664 62.8026 82.6244 63.2648 79.4631 63.638C73.0637 64.3933 65.6268 64.747 60.7233 63.3966C49.2867 60.2459 42.1459 56.357 37.6738 53.2315C35.4358 51.6673 33.848 50.2819 32.7011 49.2437C32.5378 49.0959 32.3787 48.9507 32.2254 48.8108C31.8552 48.473 31.5187 48.1659 31.2363 47.925C31.0314 47.7503 30.8198 47.5795 30.6104 47.4361C30.4136 47.3013 30.14 47.1351 29.8158 47.037Z" fill="white" stroke="black" stroke-width="3"/>
<path d="M42.7207 60.6023C42.7207 60.6023 55.5674 67.4182 65.0953 68.0333C72.906 68.5374 90.0925 66.0167 90.0925 66.0167L119.257 100.771C119.257 100.771 96.7594 105.468 85.7527 104.055C51.3451 99.6371 50.1513 93.5399 50.1513 93.5399L48.5722 90.9788C48.5722 90.9788 63.6527 99.7566 84.6988 101.265C101.065 102.437 113.849 98.7858 113.849 98.7858L88.8486 68.5634C88.8486 68.5634 74.2673 70.9098 65.6585 70.3365C57.0497 69.7632 42.7604 63.4471 42.7604 63.4471L42.7207 60.6023Z" fill="#6246EA"/>
<path d="M35.9619 61.6004C40.5522 63.7077 49.3528 67.0884 54.2213 71.8777C57.547 75.1517 63.3968 84.5806 62.5641 88.4797C61.9974 91.1358 59.0518 94.26 52.7165 91.748C46.3813 89.2359 40.3501 85.766 40.3501 85.766L35.9619 61.6004Z" fill="#6246EA"/>
<path d="M5.03206 40.464C3.72803 41.2053 3.72816 41.2056 3.72834 41.2059L3.72889 41.2069L3.73073 41.2101L3.73732 41.2216L3.7621 41.2649C3.78377 41.3027 3.81573 41.3581 3.85791 41.4309C3.94227 41.5764 4.06751 41.791 4.23308 42.0709C4.56421 42.6306 5.05671 43.4515 5.70615 44.5033C7.00497 46.6067 8.93187 49.6343 11.4516 53.3434C16.4902 60.7605 23.9039 70.9099 33.4111 81.8495C39.7083 89.0983 45.6687 94.0377 50.0709 97.1724C52.272 98.7398 54.0838 99.8561 55.354 100.585C55.9892 100.949 56.489 101.216 56.8345 101.395C57.0072 101.484 57.1414 101.551 57.2346 101.597C57.2813 101.62 57.3176 101.637 57.3435 101.649L57.3743 101.664L57.3837 101.669L57.3869 101.67L57.3882 101.671C57.3887 101.671 57.3891 101.671 58.0221 100.311L57.3891 101.671L58.9705 99.1628C58.9774 99.1547 58.9775 99.1548 58.9777 99.1549L58.9762 99.1537L58.9736 99.1513C58.9637 99.1428 58.9448 99.1264 58.9176 99.1018C58.8632 99.0528 58.7753 98.9713 58.6581 98.8555C58.4235 98.6237 58.0714 98.2541 57.6348 97.7306C56.762 96.6841 55.5494 95.0199 54.2632 92.608C51.6929 87.7885 48.8123 79.9533 47.7824 68.0481C47.3844 63.4444 48.8908 56.7101 50.5894 50.9522C51.4277 48.1104 52.2932 45.5696 52.9492 43.739C53.277 42.8243 53.552 42.0883 53.7445 41.5824C53.8408 41.3295 53.9164 41.1342 53.9676 41.003C53.9932 40.9373 54.0127 40.8877 54.0256 40.8549L54.04 40.8184L54.0434 40.8098L54.0442 40.808L54.0442 40.8078L54.0443 40.8077L54.4536 39.781L53.5941 39.086L10.0024 3.83366L8.40575 2.54247L7.66124 4.45614L9.05918 5C7.66124 4.45614 7.66119 4.45629 7.66111 4.45648L7.66086 4.45713L7.66 4.45934L7.65688 4.46738L7.64513 4.49773L7.60035 4.61404C7.56134 4.71571 7.50438 4.86487 7.43183 5.05681C7.28674 5.44067 7.07923 5.99587 6.82815 6.6848C6.32622 8.06202 5.64899 9.97688 4.94786 12.1276C3.55886 16.3884 2.02833 21.7163 1.63909 25.6113C1.24698 29.5351 1.74942 33.375 2.33435 36.2037C2.62822 37.6249 2.94638 38.8071 3.19238 39.6379C3.31548 40.0536 3.42078 40.3823 3.49636 40.6099C3.53415 40.7237 3.56454 40.8123 3.58603 40.874C3.59677 40.9048 3.60529 40.929 3.61141 40.9461L3.61875 40.9667L3.62103 40.973L3.62181 40.9751L3.62211 40.976C3.62224 40.9763 3.62235 40.9766 5.03206 40.464ZM5.03206 40.464L3.72803 41.2053L3.66555 41.0954L3.62235 40.9766L5.03206 40.464Z" fill="white" stroke="black" stroke-width="3"/>
<path d="M52.4195 96.955C52.4195 96.955 44.094 87.9684 42.3059 72.7708C41.2693 63.895 48.1799 41.9102 48.1799 41.9102L10.5779 10.0054C10.5779 10.0054 7.08979 19.8001 5.91327 25.8498C4.12171 34.9862 6.62679 43.2901 6.62679 43.2901L9.51539 47.836C9.51539 47.836 7.41977 41.8281 8.76733 29.8858C9.28562 25.3024 12.6908 15.8347 12.7944 16.0579C12.8981 16.2812 44.3221 43.0323 44.3221 43.0323C44.3221 43.0323 39.2359 64.0765 39.4847 71.1388C39.9736 84.8427 48.0261 93.9129 48.0261 93.9129L52.4195 96.955Z" fill="#6246EA"/>
<path d="M41.0222 87.712C41.0222 87.712 39.8854 84.3083 34.6732 75.2424C30.6529 68.2507 23.39 62.0801 21.3704 61.7603C20.0556 61.5529 19.6427 61.8727 19.5166 62.119C23.713 67.8028 28.7785 74.25 34.6438 80.9997C36.8327 83.5204 38.975 85.7429 41.0222 87.712Z" fill="#6246EA"/>
<path d="M87.6336 88.5618C85.9526 89.5341 83.2489 88.7058 81.5869 86.7253C79.9249 84.7447 79.9525 82.3407 81.6335 81.367C83.3145 80.3933 86.0165 81.223 87.6716 83.2021C89.3267 85.1812 89.3129 87.5938 87.6336 88.5618Z" fill="#6246EA"/>
<path d="M27.8422 48.1601C26.156 49.3816 23.2484 48.8904 21.3445 47.0654C19.4407 45.2404 19.2714 42.7687 20.9524 41.5487C22.6334 40.3287 25.5461 40.8184 27.4483 42.6448C29.3504 44.4712 29.5266 46.9343 27.8422 48.1601Z" fill="#6246EA"/>
<path d="M114.021 100.259C110.896 102.331 104.139 99.7551 107.861 96.3702C110.53 93.9417 115.951 97.1379 115.058 99.6096L114.021 100.259Z" fill="#6246EA"/>
<path d="M87.8498 67.4211C82.9226 67.0754 82.6842 70.7009 87.3315 71.5133C89.3166 71.8604 91.0425 72.2176 91.2187 70.2284C91.3397 68.8759 89.65 67.4139 88.3681 67.4211H87.8498Z" fill="#6246EA"/>
<path d="M43.2784 40.415C41.2346 38.3394 39.6504 41.1108 39.6504 42.7903C39.6504 44.4698 40.2533 46.8767 41.9188 48.0189C44.1958 49.5803 45.1771 47.4269 45.8129 45.3844C46.4279 43.4039 45.6764 42.3135 44.0559 40.8472L43.2784 40.415Z" fill="#6246EA"/>
<path d="M11.1459 12.5448H10.3685C9.78629 15.3478 8.81363 24.4281 15.5514 21.1872C20.3802 18.8609 13.7702 14.2718 11.1459 12.5448Z" fill="#6246EA"/>
<path d="M43 104.069C45.1346 107.517 48.5345 109.783 48.6279 109.875C54.3846 113.034 55.5255 113.721 59.6197 115.229C70.6922 119.305 80 120.988 94.9423 122C104.904 122 108.906 121.81 116.355 120.988C122.932 120.262 129.701 118.235 135.5 115.229C139.732 113.034 142.734 111.354 146.885 108.207C149.829 105.974 151.154 104.759 154 102" stroke="#1E1E1E" stroke-width="2" stroke-linecap="round" stroke-linejoin="round"/>
<path d="M160 96C162.475 94.2117 164.29 92.5807 166.957 90.2857C169.708 87.9172 171.826 85.2857 173.86 83.3367C174.22 83.0995 175.304 81.7143 176 81" stroke="#1E1E1E" stroke-width="2" stroke-linecap="round" stroke-linejoin="round"/>
<path d="M140 99C141.856 97.8078 143.218 96.7205 145.217 95.1905C147.281 93.6114 148.87 91.8572 150.395 90.5578C150.665 90.3997 151.478 89.4762 152 89" stroke="#1E1E1E" stroke-width="2" stroke-linecap="round" stroke-linejoin="round"/>
<path d="M42 119C42.7333 120.255 43.8287 122.072 44.9333 123.17C48.6 126.814 50.0667 127.543 53 129" stroke="#1E1E1E" stroke-width="2" stroke-linecap="round" stroke-linejoin="round"/>
</svg>
