<svg width="89" height="68" viewBox="0 0 89 68" fill="none" xmlns="http://www.w3.org/2000/svg">
<path d="M25.0002 55.8599C25.0002 55.5699 26.9102 64.8599 30.2002 58.6899C31.2002 56.8299 27.9102 66.6899 27.9102 66.6899C27.9102 66.6899 24.6702 61.5699 25.0002 55.8599Z" fill="#231F20"/>
<path d="M68.8603 21.5099L63.8003 26.1899C63.1903 26.7599 62.6203 27.3699 62.0003 27.9299L55.3903 33.8199C54.3903 34.6799 53.4603 35.5999 52.5003 36.4799C51.9023 37.0711 51.2748 37.6318 50.6203 38.1599C50.2803 38.4099 49.9303 38.6399 49.6203 38.8699C49.3103 39.0999 48.8603 39.2899 48.4903 39.4999C48.1203 39.7099 47.9903 39.4999 48.1903 39.0799C48.5071 38.3791 48.8888 37.7096 49.3303 37.0799C50.4303 35.8299 51.7203 34.7399 52.9203 33.5499C54.1203 32.3599 55.3803 31.2299 56.6703 30.1099C58.2003 28.7599 59.6103 27.1599 61.0703 25.6699L65.9003 20.7499C66.9003 19.7499 67.9003 18.7499 68.8403 17.7499C70.3003 16.1899 71.8403 14.6499 73.1603 13.0199C74.1749 11.7431 75.1132 10.4074 75.9703 9.01987C76.1603 8.71987 76.3303 8.40987 76.5303 8.11987C76.8703 7.59987 77.1303 7.27987 77.4703 7.11987C77.8355 7.12661 78.1998 7.16003 78.5603 7.21987C78.7703 7.21987 78.9903 7.21987 79.1703 7.21987C79.3503 7.21987 79.6803 7.41987 79.8203 7.83987C79.8895 8.09714 79.9098 8.3651 79.8803 8.62987C79.8571 8.88694 79.7787 9.13597 79.6503 9.35987C78.1018 12.0627 76.1757 14.5309 73.9303 16.6899C72.3103 18.3499 70.6203 19.9499 68.9303 21.5699L68.8603 21.5099Z" fill="#231F20"/>
<path d="M52.07 50.23C53.34 50.5 54.58 50.85 55.81 51.23C56.26 51.36 56.72 51.46 57.17 51.62C58.7185 52.2035 60.2196 52.9056 61.66 53.72C62.3 54.09 62.96 54.41 63.6 54.72C64.0264 54.9386 64.4315 55.1964 64.81 55.49C65.158 55.8395 65.4543 56.2369 65.6901 56.67C65.84 56.94 65.6 57.11 65.17 57.22C64.6659 57.3603 64.1381 57.3943 63.6201 57.32C63.4137 57.275 63.2193 57.1864 63.0501 57.06L62.53 56.72L61.42 56.07L59.14 54.77C58.1563 54.287 57.1192 53.9212 56.05 53.68C54.89 53.33 53.71 53.04 52.52 52.78C51.78 52.64 51.04 52.5 50.29 52.4L48.59 52.21C48.02 52.21 47.45 52.14 46.88 52.14C46.0017 52.2007 45.1292 52.3277 44.27 52.52C44.08 52.52 43.89 52.62 43.7 52.65C42.99 52.65 42.7 52.49 42.55 51.79C42.55 51.64 42.45 51.5 42.42 51.37C42.3784 51.1185 42.4254 50.8602 42.5531 50.6395C42.6808 50.4188 42.8812 50.2493 43.12 50.16C43.9115 49.8324 44.7543 49.6463 45.61 49.61C46.4755 49.545 47.3446 49.545 48.21 49.61C49.5088 49.7049 50.801 49.8752 52.08 50.12L52.07 50.23Z" fill="#231F20"/>
<path d="M59.1599 32.8001L45.9999 43.1201C44.3999 44.3801 42.8799 45.7101 41.2699 46.9601C39.8115 47.9794 38.4701 49.1565 37.2699 50.4701C36.9587 50.7969 36.6245 51.101 36.2699 51.3801C36.1599 51.4801 36.1399 51.4901 36.1099 51.5001C36.0752 51.5289 36.0449 51.5626 36.0199 51.6001C35.9199 51.7301 35.7999 51.8701 35.6999 52.0201C35.2699 52.6201 34.9399 53.3601 34.5199 54.0201C33.6956 55.5283 32.9772 57.0921 32.3699 58.7001L32.1299 59.3101L31.8499 60.0901L31.1199 62.0001C30.6799 63.2301 30.2799 64.4601 29.8499 65.3901C29.5552 66.0324 29.1787 66.6341 28.7299 67.1801C28.563 67.4178 28.3249 67.5965 28.0499 67.6901H27.8899C27.8899 67.8201 27.8899 67.6901 27.8899 67.7601H27.8099C27.7143 67.7295 27.6208 67.6927 27.5299 67.6501C27.3484 67.5603 27.1801 67.4459 27.0299 67.3101C26.8699 67.1801 26.7399 67.0501 26.5999 66.9301C26.4687 66.7797 26.3452 66.6229 26.2299 66.4601C25.9951 66.143 25.7845 65.8087 25.5999 65.4601C25.3744 65.0836 25.174 64.6928 24.9999 64.2901C24.8532 63.8434 24.6932 63.3934 24.5199 62.9401C24.3199 62.3301 24.1999 61.6001 23.9999 60.9401L23.7399 59.8401C23.6399 59.5001 23.5699 59.0101 23.5199 58.8401L23.2299 57.3201C23.1066 56.8216 23.0296 56.3127 22.9999 55.8001L22.7799 52.8801C22.7335 52.4216 22.7168 51.9607 22.7299 51.5001C22.7267 51.1081 22.6932 50.7169 22.6299 50.3301C22.6299 50.1201 22.6299 50.0201 22.6299 49.8901C22.6326 49.7435 22.6855 49.6023 22.7799 49.4901C22.9676 49.3054 23.213 49.1907 23.4751 49.1652C23.7372 49.1398 24.0001 49.205 24.2199 49.3501C25.1315 49.8412 25.9263 50.5234 26.5499 51.3501C27.2749 52.2898 27.7713 53.3854 27.9999 54.5501C28.0899 55.0701 28.2099 55.5501 28.2499 56.1101V58.4201C28.2499 58.6001 28.2499 58.5501 28.2499 58.5501C28.2293 58.5991 28.2186 58.6518 28.2186 58.7051C28.2186 58.7583 28.2293 58.811 28.2499 58.8601C28.3099 58.9901 28.3499 58.9901 28.4799 58.8601L28.5899 58.7101C28.5899 58.7101 28.5899 58.7101 28.6399 58.5901L28.6999 58.4001L28.9399 57.6401C29.2799 56.6401 29.6399 55.6401 30.0599 54.6401C30.3099 54.0301 30.5699 53.4201 30.8499 52.8101C30.9999 52.5001 31.1399 52.1901 31.2999 51.8801C31.4599 51.5701 31.6599 51.2801 31.8499 50.9801C32.2622 50.3444 32.7201 49.7395 33.2199 49.1701C33.4024 48.9912 33.5961 48.8242 33.7999 48.6701L34.1699 48.3801C34.4174 48.1766 34.678 47.9895 34.9499 47.8201C35.4899 47.4701 36.0599 47.1501 36.5699 46.8201L37.9999 45.4101L40.8499 42.8601L53.3899 31.7801L57.2599 28.3601C58.5599 27.2401 59.8599 26.1201 61.1499 24.9801C65.0599 21.5401 68.9799 18.0801 72.6899 14.4801C74.1199 13.0701 75.4799 11.6201 76.8099 10.1501C78.1399 8.68006 79.4199 7.15006 80.7199 5.70006C81.2799 5.03006 81.8799 4.43006 82.4999 3.82006C83.3018 2.9853 84.2095 2.25913 85.1999 1.66006C85.5096 1.48246 85.848 1.36061 86.1999 1.30006C86.5324 1.26717 86.8674 1.26717 87.1999 1.30006C87.4699 1.30006 87.7599 1.30006 87.9499 1.30006C88.4799 1.35006 88.4399 3.09006 87.0999 5.19006C86.6199 5.99006 86.0999 6.73006 85.5799 7.50006L84.7899 8.65006C84.5199 9.03006 84.2099 9.37006 83.9199 9.73006C82.6399 11.1634 81.3599 12.5567 80.0799 13.9101C78.7799 15.2501 77.4399 16.5701 76.0799 17.9101L71.9999 21.7701C67.8399 25.5501 63.6032 29.2534 59.2899 32.8801L59.1599 32.8001Z" fill="#231F20"/>
<path d="M64.41 19.56C61.0767 21.56 57.7434 23.56 54.41 25.56C53.2 26.3 52.06 27.14 50.85 27.87L38.06 35.6C36.15 36.73 34.3 37.97 32.48 39.2C30.1443 40.7934 27.7093 42.2363 25.19 43.52C24.4 43.91 24.29 43.58 24.63 42.78C25.1761 41.5486 25.9419 40.4269 26.89 39.47L28.48 38L29.28 37.25L30.14 36.59C31.2867 35.71 32.4467 34.85 33.62 34.01C34.8 33.17 35.97 32.32 37.21 31.56C38.45 30.8 39.7 30 41 29.33C44.05 27.63 46.94 25.44 49.92 23.5C53.2 21.37 56.52 19.29 59.82 17.2L65.94 13.35C69.01 11.35 72.14 9.48999 75.14 7.44999C77.47 5.86999 79.68 4.18999 81.98 2.59999C82.49 2.24999 82.98 1.87999 83.5 1.59999C85.5 0.389992 86.5 0.479992 87.3 1.03999C87.4993 1.15581 87.6899 1.28616 87.87 1.42999C88.13 1.67999 88.11 2.03999 87.87 2.50999C87.5924 3.13126 87.1909 3.68932 86.69 4.14999C85.8 5.05999 84.81 5.79999 83.84 6.63999C82.87 7.47999 81.84 8.24999 80.84 9.04999C78.7863 10.6557 76.6392 12.1383 74.41 13.49C71.13 15.59 67.77 17.61 64.41 19.69V19.56Z" fill="#231F20"/>
<path d="M57.54 53.8099C56.2848 53.367 55.0021 53.0063 53.7 52.7299C53.22 52.6099 52.7 52.6599 52.24 52.5599C51.39 52.3699 50.53 52.2999 49.65 52.1699C48.7707 52.0623 47.8859 52.0055 47 51.9999C46.2173 52.0049 45.4382 52.1056 44.68 52.2999C43.7351 52.6332 42.7419 52.8089 41.74 52.8199C41.41 52.8199 41.24 51.9699 41.31 51.1199C41.38 50.2699 41.72 49.3899 42.31 49.2299C44.4988 48.6824 46.7787 48.604 49 48.9999C50.33 49.2299 51.72 49.1199 53.07 49.3099C54.5511 49.5256 56.0125 49.86 57.44 50.3099C58.32 50.5999 59.19 50.8799 60.04 51.2099C61.34 51.6799 62.57 52.3199 63.83 52.8699C64.8353 53.2472 65.8142 53.6916 66.76 54.1999C66.95 54.3399 67.16 54.4599 67.34 54.6199C67.99 55.2499 68.06 55.6199 67.78 56.2199C67.7313 56.35 67.6745 56.4769 67.61 56.5999C67.4444 56.7972 67.2232 56.94 66.9752 57.0096C66.7272 57.0792 66.464 57.0723 66.22 56.9899C65.77 56.8899 65.28 56.8399 64.83 56.7599C64.403 56.6709 63.9895 56.5263 63.6 56.3299L61.2 55.3299C59.9882 54.8057 58.746 54.3548 57.48 53.9799L57.54 53.8099Z" fill="#231F20"/>
<path d="M79.9302 23.2901C79.4102 24.4601 78.9302 25.6501 78.4202 26.8401C77.9102 28.0301 77.4202 29.2101 76.9402 30.4201C76.5902 31.2901 76.3602 32.2101 76.0202 33.0901C74.8202 36.1901 73.6802 39.3301 72.7602 42.5201C72.3802 44.0001 72.0002 45.3801 71.7002 46.8101C71.5202 47.7201 71.3602 48.6401 71.2202 49.5501C71.0132 50.4276 70.8529 51.3156 70.7402 52.2101C70.7402 52.6501 70.5002 52.8201 70.0002 52.3501C69.3597 51.5846 68.9534 50.6506 68.8302 49.6601C68.783 47.6542 68.8967 45.6478 69.1702 43.6601C69.5451 41.717 70.0769 39.8074 70.7602 37.9501C71.5702 35.7101 72.0302 33.3001 72.7602 30.9501C73.5702 28.4201 74.4202 25.9501 75.4402 23.4401C76.0502 21.9301 76.7002 20.4401 77.3402 18.9201C78.3402 16.6401 79.4202 14.4001 80.4502 12.1601C80.8702 11.2901 81.2202 10.4001 81.6002 9.51011C81.9461 8.60318 82.3606 7.72396 82.8402 6.88011C83.0602 6.51011 83.2302 6.12011 83.4902 5.76011C84.4302 4.43011 85.0502 4.20011 86.0002 4.57011C86.2231 4.64028 86.4404 4.7272 86.6502 4.83011C87.3102 5.22011 87.4002 6.09011 87.0102 7.08011C86.4202 8.57011 86.0102 10.1701 85.2202 11.6401L83.1002 16.2401C82.1002 18.5601 80.9902 20.9101 80.0402 23.3101L79.9302 23.2901Z" fill="#231F20"/>
<path d="M47.4501 23.2101L31.8501 29.6101C29.9501 30.3901 28.1201 31.3001 26.2201 32.0801L16.2201 36.2001L15.0001 36.7201L14.3801 37.0001L13.8901 37.2201L12.8001 37.6401C12.0501 37.9501 11.2101 38.3001 10.3301 38.7101C10.1301 38.8001 9.94006 38.8901 9.76006 38.9901C9.6644 39.0359 9.57663 39.0967 9.50006 39.1701C9.56006 39.1701 9.67006 39.1701 9.76006 39.1701L10.9101 39.2501C11.7101 39.3001 12.5301 39.3501 13.2701 39.4301C13.5101 39.4301 13.7501 39.4801 13.9801 39.5201C14.0501 39.5201 14.0601 39.5201 14.1901 39.5201L14.5901 39.6101L15.3801 39.7901C16.4474 40.0431 17.4938 40.3774 18.5101 40.7901C19.5793 41.2164 20.5879 41.7812 21.5101 42.4701C22.4808 43.2299 23.2216 44.2442 23.6501 45.4001C23.9201 46.1201 23.8001 46.5001 23.5801 46.5701C23.3601 46.6401 22.9401 46.4401 22.3401 46.2301C21.5827 45.9975 20.7919 45.8927 20.0001 45.9201C19.1082 45.835 18.2272 45.6608 17.3701 45.4001C16.5115 45.1328 15.6363 44.9223 14.7501 44.7701C14.2901 44.6901 13.8301 44.6101 13.3601 44.5501L13.0001 44.4901L12.2201 44.3801C11.6801 44.3801 11.1101 44.3201 10.5501 44.2901L8.90006 44.0901L7.19006 43.9201L5.42006 43.7801L4.53006 43.7201C4.26037 43.7105 3.99234 43.6736 3.73006 43.6101C3.03092 43.4716 2.36947 43.1852 1.79006 42.7701C1.45545 42.574 1.20589 42.2602 1.09006 41.8901C1.02304 41.6528 0.992693 41.4066 1.00006 41.1601C1.01618 41.0205 1.01618 40.8796 1.00006 40.7401C0.979797 40.6042 0.979797 40.466 1.00006 40.3301C1.10212 39.5709 1.45394 38.8672 2.00006 38.3301C2.53631 37.7581 3.17369 37.2903 3.88006 36.9501L4.20006 36.7801L4.74006 36.6401C5.08006 36.5501 5.48006 36.4601 5.74006 36.3701L7.20006 35.7501L10.0101 34.5901L11.3701 34.0901L12.0001 33.8301L12.2901 33.7201L12.4701 33.6501C17.1701 31.7901 21.8101 29.3501 26.4701 27.2301L42.0601 20.3001L51.5901 16.0001C56.3701 13.8001 61.2601 11.7801 65.9501 9.46008C67.7701 8.57008 69.5401 7.61008 71.2901 6.63008L76.5801 3.85008C77.3601 3.44008 78.1001 3.01008 78.8901 2.61008C79.6801 2.21008 80.2201 1.95008 80.7301 1.72008C81.1719 1.55039 81.6267 1.41663 82.0901 1.32008C82.669 1.18562 83.2711 1.18562 83.8501 1.32008C84.0751 1.36159 84.302 1.39163 84.5301 1.41008C84.8701 1.46008 84.8501 1.91008 84.4701 2.54008C83.9142 3.39054 83.2408 4.15813 82.4701 4.82008C79.4701 7.07008 76.3901 9.15008 73.1701 11.1501C69.8701 12.9801 66.4701 14.6901 63.0401 16.3701C60.4901 17.6001 58.0001 18.8501 55.3401 20.0001L47.5101 23.3401L47.4501 23.2101Z" fill="#231F20"/>
</svg>
