<svg width="34" height="26" viewBox="0 0 34 26" fill="none" xmlns="http://www.w3.org/2000/svg">
<path d="M14.928 17.952C14.928 13.824 12.24 11.328 8.784 11.328C7.728 11.328 6.864 11.52 6.096 11.808C6.096 8.44799 8.976 5.856 13.104 5.088V0.479994C5.424 1.44 0.0480001 7.68 0.0480001 15.744C0.0480001 21.504 3.312 25.152 7.824 25.152C12.048 25.152 14.928 22.176 14.928 17.952ZM33.936 17.952C33.936 13.824 31.152 11.328 27.696 11.328C26.64 11.328 25.776 11.52 25.008 11.904C25.008 8.44799 27.984 5.856 32.112 5.088V0.479994C24.432 1.44 19.056 7.68 19.056 15.744C19.056 21.504 22.32 25.152 26.832 25.152C31.056 25.152 33.936 22.176 33.936 17.952Z" fill="black"/>
</svg>
