<svg width="252" height="26" viewBox="0 0 252 26" fill="none" xmlns="http://www.w3.org/2000/svg">
<path d="M73.5778 6.92717V25.4986H67.0506V6.92717H60.47V0.984318H80.1584V6.92717H73.5778ZM95.3826 18.1443H84.9782C84.9696 18.5489 85.0423 18.9509 85.1915 19.3244C85.3408 19.6979 85.5634 20.0346 85.8449 20.3128C86.1264 20.591 86.4606 20.8045 86.8259 20.9396C87.1913 21.0747 87.5797 21.1284 87.9661 21.0972C89.5723 21.0881 91.1482 20.6399 92.5369 19.7972L94.9024 23.8829C92.7626 25.2584 90.301 25.991 87.7883 26C82.4527 26 79.5537 22.0629 79.5537 16.4172C79.5537 10.0657 82.9862 6.79717 87.6104 6.79717C92.2346 6.79717 95.4715 10.14 95.4715 16.9743C95.4004 17.42 95.4004 17.81 95.3826 18.1257V18.1443ZM87.3792 11.4029C85.992 11.4029 85.245 12.3872 85.0315 14.2257H90.0648C89.7624 12.3686 89.1755 11.4029 87.397 11.4029H87.3792ZM106.623 25.9443C101.465 25.9443 98.3705 22.5086 98.3705 16.2872C98.3705 10.7157 101.109 6.74146 106.765 6.74146C108.156 6.69337 109.531 7.05885 110.731 7.79533C111.931 8.53181 112.905 9.60899 113.541 10.9014L109.38 14.2443C108.544 12.6472 107.957 11.8672 106.658 11.8672C105.36 11.8672 104.346 13.4829 104.346 16.3986C104.346 19.3143 105.182 20.8186 106.836 20.8186C107.975 20.8186 108.793 20.15 109.895 18.4043L113.719 21.5243C111.656 24.6814 109.753 25.9257 106.605 25.9257L106.623 25.9443ZM127.254 25.5729V15.1172C127.254 12.7029 126.489 12.09 125.244 12.09C123.999 12.09 123.181 12.7214 123.181 15.0614V25.5914H117.134V2.56289L123.181 0.0371791V8.39431C124.433 7.32249 126.009 6.74987 127.627 6.7786C131.487 6.7786 133.319 9.49002 133.319 14.3186V25.5914L127.254 25.5729Z" fill="#AA98FF"/>
<path d="M147.814 25.9443C140.824 25.9443 137.143 20.5585 137.143 13.2786C137.143 5.38571 141.589 0.61286 147.814 0.61286C153.594 0.61286 155.87 3.21285 157.489 7.8557L151.584 10.27C150.73 7.9857 149.93 6.5557 147.778 6.5557C145.057 6.5557 143.865 9.39713 143.865 13.2971C143.865 17.1971 145.004 20.02 147.831 20.02C149.877 20.02 150.748 18.8685 152.029 16.5471L157.542 19.6114C156.726 21.577 155.357 23.237 153.616 24.3713C151.875 25.5056 149.846 26.0607 147.796 25.9628L147.814 25.9443ZM172.464 14.0586C172.13 13.6047 171.706 13.2318 171.221 12.9657C170.736 12.6996 170.201 12.5465 169.654 12.5171C168.178 12.5171 167.271 13.26 167.271 15.4886V25.5171H161.224V7.13142H167.271V8.46856C168.106 7.5482 169.217 6.95275 170.419 6.78055C171.622 6.60835 172.846 6.86969 173.887 7.52142L172.464 14.0586ZM186.87 25.5357V24.31C185.634 25.385 184.068 25.9587 182.459 25.9257C178.6 25.9257 176.768 23.2143 176.768 18.3671V7.16856H182.815V17.5685C182.815 19.9457 183.598 20.5771 184.843 20.5771C186.088 20.5771 186.852 19.9457 186.852 17.6428V7.16856H192.935V25.5914L186.87 25.5357ZM207.43 25.5357V15.08C207.43 12.6657 206.647 12.0528 205.42 12.0528C204.193 12.0528 203.357 12.6843 203.357 15.0243V25.5543H197.31V7.16856H203.357V8.39427C204.609 7.32245 206.185 6.74984 207.804 6.77856C211.663 6.77856 213.495 9.48999 213.495 14.3186V25.5914L207.43 25.5357ZM225.304 25.9071C220.146 25.9071 217.034 22.4714 217.034 16.25C217.034 10.6786 219.791 6.70428 225.429 6.70428C226.821 6.65932 228.198 7.02592 229.4 7.76187C230.602 8.49782 231.58 9.57322 232.223 10.8643L228.061 14.1514C227.207 12.5543 226.638 11.7743 225.34 11.7743C224.041 11.7743 223.028 13.39 223.028 16.3057C223.028 19.2214 223.864 20.7257 225.518 20.7257C226.656 20.7257 227.474 20.0571 228.577 18.3114L232.401 21.4314C230.355 24.6628 228.434 25.8885 225.322 25.8885L225.304 25.9071ZM245.935 25.5357V15.08C245.935 12.6657 245.17 12.0528 243.925 12.0528C242.68 12.0528 241.88 12.6843 241.88 15.0243V25.5543H235.833V2.52571L241.88 0V8.35713C243.123 7.28226 244.695 6.70895 246.309 6.74142C250.186 6.74142 252 9.45284 252 14.2814V25.5543L245.935 25.5357Z" fill="#AA98FF"/>
<path d="M0 0V8.67103H8.29423V26H16.6V8.67103H24.8942V0H0ZM33.1999 17.3289V8.66993L24.8942 8.67103L24.8931 25.9989H49.7989V17.3278L33.1999 17.3289ZM33.1999 0H49.7989V8.67103L33.1999 8.66993V0Z" fill="#AA98FF"/>
</svg>
